<?xml version="1.0" encoding="utf-8"?>
<!-- Generator: Adobe Illustrator 18.0.0, SVG Export Plug-In . SVG Version: 6.00 Build 0)  -->
<!DOCTYPE svg PUBLIC "-//W3C//DTD SVG 1.1//EN" "http://www.w3.org/Graphics/SVG/1.1/DTD/svg11.dtd">
<svg version="1.1" id="Layer_1" xmlns="http://www.w3.org/2000/svg" xmlns:xlink="http://www.w3.org/1999/xlink" x="0px" y="0px"
	 viewBox="0 0 360 290" enable-background="new 0 0 360 290" xml:space="preserve">
<g>
	<g>
		<g>
			<polygon fill="#ECECEC" points="270.8,218.3 270.8,72.1 65.9,72.1 65.9,218.3 29.7,218.3 29.7,21.5 307,21.5 307,218.3 			"/>
			<path fill="#106580" d="M314,213.3h-3.9V18H26.7v195.3h-3.9V16.1c0-1.1,0.9-1.9,1.9-1.9H312c1.1,0,1.9,0.9,1.9,1.9V213.3z"/>
			<path fill="#106580" d="M267.8,213.3h-3.9V78.6h-191v134.7H69V76.7c0-1.1,0.9-1.9,1.9-1.9h194.9c1.1,0,1.9,0.9,1.9,1.9V213.3z"/>
			<g>
				<g>
					<path fill="#D85F58" d="M91.6,48L91.6,48c0-4.7,3.6-8.5,8.5-8.5c2.4,0,4.1,0.6,5.5,1.6c0.3,0.3,0.7,0.7,0.7,1.4
						c0,1-0.8,1.8-1.8,1.8c-0.5,0-0.8-0.2-1.1-0.4c-1-0.7-2-1.1-3.5-1.1c-2.6,0-4.6,2.3-4.6,5.1v0c0,3,2,5.2,4.9,5.2
						c1.3,0,2.4-0.3,3.3-1v-2.3h-2.4c-0.9,0-1.5-0.7-1.5-1.5c0-0.9,0.7-1.6,1.5-1.6h4.1c1,0,1.8,0.8,1.8,1.8v4c0,1-0.4,1.8-1.2,2.3
						c-1.3,0.8-3.2,1.6-5.7,1.6C95.1,56.4,91.6,52.9,91.6,48z"/>
					<path fill="#D85F58" d="M114.2,41.6c0-1,0.8-1.8,1.8-1.8h5.6c2.1,0,3.7,0.6,4.7,1.7c0.9,0.9,1.4,2.2,1.4,3.7v0
						c0,2.6-1.3,4.2-3.2,5l2.5,3c0.3,0.4,0.6,0.8,0.6,1.4c0,1-0.8,1.7-1.7,1.7c-0.8,0-1.3-0.4-1.8-0.9l-3.5-4.4h-2.8v3.6
						c0,1-0.8,1.8-1.8,1.8c-1,0-1.8-0.8-1.8-1.8V41.6z M121.3,47.7c1.7,0,2.7-0.9,2.7-2.3v0c0-1.5-1.1-2.3-2.8-2.3h-3.5v4.7H121.3z"
						/>
					<path fill="#D85F58" d="M133.7,53.8l5.6-12.9c0.4-0.9,1.1-1.4,2.1-1.4h0.2c1,0,1.7,0.5,2.1,1.4l5.6,12.9
						c0.1,0.3,0.2,0.5,0.2,0.7c0,1-0.7,1.7-1.7,1.7c-0.8,0-1.4-0.5-1.7-1.2l-1.1-2.6h-7.1l-1.1,2.7c-0.3,0.7-0.9,1.1-1.6,1.1
						c-0.9,0-1.6-0.7-1.6-1.7C133.5,54.3,133.6,54.1,133.7,53.8z M143.7,49.3l-2.2-5.4l-2.2,5.4H143.7z"/>
					<path fill="#D85F58" d="M156,41.5c0-1,0.8-1.8,1.8-1.8h0.4c0.9,0,1.4,0.4,1.8,1l6.9,9.1v-8.4c0-1,0.8-1.8,1.8-1.8
						s1.8,0.8,1.8,1.8v13c0,1-0.8,1.8-1.8,1.8h-0.1c-0.9,0-1.4-0.4-1.8-1l-7.1-9.4v8.7c0,1-0.8,1.8-1.8,1.8s-1.8-0.8-1.8-1.8V41.5z"
						/>
					<path fill="#D85F58" d="M188.6,41.6c0-1,0.8-1.8,1.8-1.8h5.6c2.1,0,3.7,0.6,4.7,1.7c0.9,0.9,1.4,2.2,1.4,3.7v0
						c0,2.6-1.3,4.2-3.2,5l2.5,3c0.3,0.4,0.6,0.8,0.6,1.4c0,1-0.8,1.7-1.7,1.7c-0.8,0-1.3-0.4-1.8-0.9l-3.5-4.4h-2.8v3.6
						c0,1-0.8,1.8-1.8,1.8s-1.8-0.8-1.8-1.8V41.6z M195.7,47.7c1.7,0,2.7-0.9,2.7-2.3v0c0-1.5-1.1-2.3-2.8-2.3h-3.5v4.7H195.7z"/>
					<path fill="#D85F58" d="M209,54.3V41.6c0-1,0.8-1.8,1.8-1.8h9c0.9,0,1.6,0.7,1.6,1.6s-0.7,1.6-1.6,1.6h-7.2v3.3h6.2
						c0.9,0,1.6,0.7,1.6,1.6s-0.7,1.6-1.6,1.6h-6.2v3.4h7.3c0.9,0,1.6,0.7,1.6,1.6s-0.7,1.6-1.6,1.6h-9.1
						C209.8,56.1,209,55.4,209,54.3z"/>
					<path fill="#D85F58" d="M227.8,53.3l4.4-5.4l-4.1-5.1c-0.3-0.3-0.5-0.8-0.5-1.3c0-1,0.7-1.8,1.8-1.8c0.8,0,1.2,0.3,1.6,0.9
						l3.5,4.8l3.5-4.7c0.5-0.6,0.9-1,1.7-1s1.6,0.6,1.6,1.7c0,0.5-0.2,0.9-0.5,1.4l-4.1,5.1l4.3,5.4c0.3,0.3,0.5,0.8,0.5,1.3
						c0,1-0.7,1.8-1.8,1.8c-0.8,0-1.2-0.3-1.6-0.9l-3.8-5l-3.7,4.9c-0.5,0.6-0.9,1-1.7,1s-1.6-0.6-1.6-1.7
						C227.3,54.1,227.5,53.7,227.8,53.3z"/>
				</g>
			</g>
			<g>
				<g>
					<rect x="79.6" y="86.4" fill="#2F92C8" width="42.2" height="25.7"/>
					<rect x="124.7" y="86.4" fill="#2F92C8" width="42.2" height="25.7"/>
					<rect x="169.9" y="86.4" fill="#2F92C8" width="42.2" height="25.7"/>
					<rect x="215" y="86.4" fill="#2F92C8" width="42.2" height="25.7"/>
					<rect x="79.6" y="115.1" fill="#2F92C8" width="42.2" height="25.7"/>
					<rect x="124.7" y="115.1" fill="#2F92C8" width="42.2" height="25.7"/>
					<rect x="169.9" y="115.1" fill="#2F92C8" width="42.2" height="25.7"/>
					<rect x="215" y="115.1" fill="#2F92C8" width="42.2" height="25.7"/>
				</g>
			</g>
			<g>
				<g>
					<rect x="79.6" y="163.8" fill="#2F92C8" width="42.2" height="25.7"/>
					<rect x="124.7" y="163.8" fill="#2F92C8" width="42.2" height="25.7"/>
					<rect x="169.9" y="163.8" fill="#2F92C8" width="42.2" height="25.7"/>
					<rect x="215" y="163.8" fill="#2F92C8" width="42.2" height="25.7"/>
					<rect x="79.6" y="192.6" fill="#2F92C8" width="42.2" height="25.7"/>
					<rect x="124.7" y="192.6" fill="#2F92C8" width="42.2" height="25.7"/>
					<rect x="169.9" y="192.6" fill="#2F92C8" width="42.2" height="25.7"/>
					<rect x="215" y="192.6" fill="#2F92C8" width="42.2" height="25.7"/>
				</g>
			</g>
			<rect x="70.9" y="149.2" fill="#106580" width="194.9" height="6"/>
			<rect x="8.5" y="224.2" fill="#106580" width="319.7" height="12"/>
		</g>
		<g>
			<g>
				<path fill="#D85F58" d="M326.6,51.3L326.6,51.3c0-3.4,2.6-6.1,6.1-6.1c1.8,0,2.9,0.4,4,1.1c0.2,0.2,0.5,0.5,0.5,1
					c0,0.7-0.6,1.3-1.3,1.3c-0.4,0-0.6-0.1-0.8-0.3c-0.7-0.5-1.4-0.8-2.5-0.8c-1.9,0-3.3,1.7-3.3,3.7v0c0,2.1,1.5,3.7,3.5,3.7
					c0.9,0,1.8-0.2,2.4-0.7v-1.7h-1.7c-0.6,0-1.1-0.5-1.1-1.1s0.5-1.1,1.1-1.1h2.9c0.7,0,1.3,0.6,1.3,1.3v2.9c0,0.8-0.3,1.3-0.9,1.6
					c-0.9,0.6-2.3,1.2-4.1,1.2C329.1,57.3,326.6,54.8,326.6,51.3z"/>
				<path fill="#D85F58" d="M327.1,66.8c0-0.7,0.6-1.3,1.3-1.3h4c1.5,0,2.6,0.4,3.4,1.2c0.6,0.7,1,1.6,1,2.7v0c0,1.8-0.9,3-2.3,3.6
					l1.8,2.2c0.2,0.3,0.4,0.6,0.4,1c0,0.7-0.6,1.2-1.2,1.2c-0.6,0-1-0.3-1.3-0.7l-2.5-3.2h-2v2.6c0,0.7-0.6,1.3-1.3,1.3
					c-0.7,0-1.3-0.6-1.3-1.3V66.8z M332.3,71.3c1.2,0,2-0.7,2-1.7v0c0-1.1-0.8-1.7-2-1.7h-2.5v3.4H332.3z"/>
				<path fill="#D85F58" d="M326.5,95.8l4.1-9.2c0.3-0.6,0.8-1,1.5-1h0.1c0.7,0,1.2,0.4,1.5,1l4.1,9.2c0.1,0.2,0.1,0.4,0.1,0.5
					c0,0.7-0.5,1.2-1.2,1.2c-0.6,0-1-0.4-1.2-0.9l-0.8-1.8h-5.1l-0.8,1.9c-0.2,0.5-0.6,0.8-1.2,0.8c-0.7,0-1.2-0.5-1.2-1.2
					C326.3,96.1,326.4,96,326.5,95.8z M333.7,92.5l-1.6-3.9l-1.6,3.9H333.7z"/>
				<path fill="#D85F58" d="M327.1,107.1c0-0.7,0.6-1.3,1.3-1.3h0.3c0.6,0,1,0.3,1.3,0.8l4.9,6.5V107c0-0.7,0.6-1.3,1.3-1.3
					s1.3,0.6,1.3,1.3v9.3c0,0.7-0.6,1.3-1.3,1.3h-0.1c-0.6,0-1-0.3-1.3-0.8l-5.1-6.8v6.3c0,0.7-0.6,1.3-1.3,1.3
					c-0.7,0-1.3-0.6-1.3-1.3V107.1z"/>
				<path fill="#D85F58" d="M327.1,127.3c0-0.7,0.6-1.3,1.3-1.3h4c1.5,0,2.6,0.4,3.4,1.2c0.6,0.7,1,1.6,1,2.7v0c0,1.8-0.9,3-2.3,3.6
					l1.8,2.2c0.2,0.3,0.4,0.6,0.4,1c0,0.7-0.6,1.2-1.2,1.2c-0.6,0-1-0.3-1.3-0.7l-2.5-3.2h-2v2.6c0,0.7-0.6,1.3-1.3,1.3
					c-0.7,0-1.3-0.6-1.3-1.3V127.3z M332.3,131.7c1.2,0,2-0.7,2-1.7v0c0-1.1-0.8-1.7-2-1.7h-2.5v3.4H332.3z"/>
				<path fill="#D85F58" d="M327.1,156.6v-9.2c0-0.7,0.6-1.3,1.3-1.3h6.5c0.6,0,1.1,0.5,1.1,1.2c0,0.6-0.5,1.1-1.1,1.1h-5.2v2.4h4.4
					c0.6,0,1.1,0.5,1.1,1.2s-0.5,1.1-1.1,1.1h-4.4v2.5h5.3c0.6,0,1.1,0.5,1.1,1.2s-0.5,1.1-1.1,1.1h-6.5
					C327.7,157.9,327.1,157.3,327.1,156.6z"/>
				<path fill="#D85F58" d="M326.9,175.9l3.1-3.9l-3-3.6c-0.2-0.3-0.4-0.6-0.4-1c0-0.7,0.5-1.3,1.3-1.3c0.5,0,0.9,0.2,1.2,0.6
					l2.5,3.4l2.5-3.4c0.3-0.5,0.7-0.7,1.2-0.7c0.6,0,1.2,0.5,1.2,1.2c0,0.4-0.1,0.7-0.4,1l-3,3.7l3.1,3.9c0.2,0.3,0.4,0.6,0.4,1
					c0,0.7-0.5,1.3-1.3,1.3c-0.5,0-0.9-0.2-1.2-0.6l-2.7-3.6l-2.7,3.5c-0.3,0.5-0.7,0.7-1.2,0.7s-1.2-0.5-1.2-1.2
					C326.5,176.6,326.6,176.3,326.9,175.9z"/>
			</g>
		</g>
		<path fill="#106580" d="M321.5,181.3c-0.6,0-1-0.4-1-1V43c0-0.6,0.4-1,1-1s1,0.4,1,1v137.3C322.5,180.9,322.1,181.3,321.5,181.3z"
			/>
	</g>
	<rect x="22.8" y="242.3" fill="#106580" width="3.9" height="33.1"/>
	<rect x="310.1" y="242.3" fill="#106580" width="3.9" height="33.1"/>
	<polygon fill="#106580" points="62.8,275.4 58.9,275.4 58.9,249.2 42.8,249.2 42.8,275.4 38.9,275.4 38.9,245.3 62.8,245.3 	"/>
	<polygon fill="#106580" points="88.9,275.4 85,275.4 85,249.2 68.9,249.2 68.9,275.4 65,275.4 65,245.3 88.9,245.3 	"/>
	<polygon fill="#106580" points="115,275.4 111.2,275.4 111.2,249.2 95,249.2 95,275.4 91.1,275.4 91.1,245.3 115,245.3 	"/>
	<polygon fill="#106580" points="141.2,275.4 137.3,275.4 137.3,249.2 121.1,249.2 121.1,275.4 117.2,275.4 117.2,245.3 
		141.2,245.3 	"/>
	<polygon fill="#106580" points="167.3,275.4 163.4,275.4 163.4,249.2 147.2,249.2 147.2,275.4 143.3,275.4 143.3,245.3 
		167.3,245.3 	"/>
	<polygon fill="#106580" points="193.4,275.4 189.5,275.4 189.5,249.2 173.3,249.2 173.3,275.4 169.5,275.4 169.5,245.3 
		193.4,245.3 	"/>
	<polygon fill="#106580" points="219.5,275.4 215.6,275.4 215.6,249.2 199.5,249.2 199.5,275.4 195.6,275.4 195.6,245.3 
		219.5,245.3 	"/>
	<polygon fill="#106580" points="245.6,275.4 241.7,275.4 241.7,249.2 225.6,249.2 225.6,275.4 221.7,275.4 221.7,245.3 
		245.6,245.3 	"/>
	<polygon fill="#106580" points="271.7,275.4 267.9,275.4 267.9,249.2 251.7,249.2 251.7,275.4 247.8,275.4 247.8,245.3 
		271.7,245.3 	"/>
	<polygon fill="#106580" points="297.9,275.4 294,275.4 294,249.2 277.8,249.2 277.8,275.4 273.9,275.4 273.9,245.3 297.9,245.3 	
		"/>
	<rect x="45.4" y="251.8" fill="#FFFFFF" width="10.8" height="20.9"/>
	<rect x="71.5" y="251.8" fill="#FFFFFF" width="10.8" height="20.9"/>
	<rect x="97.7" y="251.8" fill="#FFFFFF" width="10.8" height="20.9"/>
	<rect x="123.8" y="251.8" fill="#FFFFFF" width="10.8" height="20.9"/>
	<rect x="150" y="251.8" fill="#FFFFFF" width="10.8" height="20.9"/>
	<rect x="176.1" y="251.8" fill="#FFFFFF" width="10.8" height="20.9"/>
	<rect x="202.3" y="251.8" fill="#FFFFFF" width="10.8" height="20.9"/>
	<rect x="228.4" y="251.8" fill="#FFFFFF" width="10.8" height="20.9"/>
	<rect x="254.5" y="251.8" fill="#FFFFFF" width="10.8" height="20.9"/>
	<rect x="280.7" y="251.8" fill="#FFFFFF" width="10.8" height="20.9"/>
</g>
</svg>
