<?xml version="1.0" encoding="utf-8"?>
<!-- Generator: Adobe Illustrator 18.0.0, SVG Export Plug-In . SVG Version: 6.00 Build 0)  -->
<!DOCTYPE svg PUBLIC "-//W3C//DTD SVG 1.1//EN" "http://www.w3.org/Graphics/SVG/1.1/DTD/svg11.dtd">
<svg version="1.1" id="Layer_1" xmlns="http://www.w3.org/2000/svg" xmlns:xlink="http://www.w3.org/1999/xlink" x="0px" y="0px"
	 viewBox="0 0 190 190" enable-background="new 0 0 190 190" xml:space="preserve">
<pattern  x="-105" y="-105" width="500" height="458.6" patternUnits="userSpaceOnUse" id="New_Pattern_2_copy" viewBox="52.3 -514.1 500 458.6" overflow="visible">
	<g>
		<polygon fill="none" points="52.3,-514.1 552.3,-514.1 552.3,-55.5 52.3,-55.5 		"/>
		<g>
			<path fill="none" stroke="#231F20" stroke-width="3" stroke-miterlimit="10" d="M510.2-17c1.4-2.4,4.3-3.5,6.4-2.5
				c1.7-3,3.4-6.1,5.2-9.2c-17.9-7.6-36.4-18.4-54.6-32.3c-1.7,2.5-3.5,5-5.2,7.4c0.1,0.1,0.2,0.1,0.3,0.2c2.2,1.7,2.8,4.7,1.4,6.6
				c-1.4,2-4.3,2.1-6.4,0.3c-0.1-0.1-0.2-0.1-0.2-0.2c-1.7,2.4-3.4,4.7-5.2,7.1c17.9,15.7,36.4,28.2,54.6,37.6
				c1.7-2.9,3.5-5.9,5.2-8.8C509.4-11.9,508.8-14.7,510.2-17z"/>
			<path fill="#231F20" d="M451.4-120.7l2.1,4.2c0.1,0.3,0.3,0.5,0.6,0.6l3.9,2.3c1,0.6,1,2.1,0,2.7l-3.9,2.3
				c-0.2,0.1-0.4,0.4-0.6,0.6l-2.1,4.2c-0.5,1.1-1.9,1.1-2.4,0l-2.1-4.2c-0.1-0.3-0.3-0.5-0.6-0.6l-3.9-2.3c-1-0.6-1-2.1,0-2.7
				l3.9-2.3c0.2-0.1,0.4-0.4,0.6-0.6l2.1-4.2C449.5-121.8,450.9-121.8,451.4-120.7z"/>
			<path fill="none" stroke="#231F20" stroke-width="3" stroke-miterlimit="10" d="M491.5-137.1c0.5,1.7-0.6,4-2.4,5.2
				c0.6,2.1,1.3,4.3,1.9,6.4c15.6-9.3,32.5-13,47.8-11.1c-0.6-2.6-1.3-5.2-1.9-7.8c-0.1,0-0.1,0-0.2,0c-1.8-0.2-3.8-1.9-4.3-3.9
				c-0.5-2,0.6-3.7,2.4-3.6c0.1,0,0.1,0,0.2,0c-0.6-2.6-1.3-5.2-1.9-7.7c-15.6-0.6-32.5,4.5-47.8,15.2c0.6,2.1,1.3,4.2,1.9,6.3
				C489.1-139.4,491-138.8,491.5-137.1z"/>
			<path fill="none" stroke="#231F20" stroke-width="3" stroke-miterlimit="10" d="M359.1-72l2.7,5.5c0.2,0.3,0.4,0.6,0.7,0.8l5,3
				c1.2,0.7,1.2,2.7,0,3.5l-5,3c-0.3,0.2-0.5,0.5-0.7,0.8l-2.7,5.5c-0.7,1.4-2.5,1.4-3.1,0l-2.7-5.5c-0.2-0.3-0.4-0.6-0.7-0.8l-5-3
				c-1.2-0.7-1.2-2.7,0-3.5l5-3c0.3-0.2,0.5-0.5,0.7-0.8L356-72C356.7-73.4,358.5-73.4,359.1-72z"/>
			<g>
				
					<line fill="none" stroke="#231F20" stroke-width="3" stroke-linecap="round" stroke-miterlimit="10" x1="422.3" y1="-68.4" x2="429.7" y2="-61"/>
				
					<line fill="none" stroke="#231F20" stroke-width="3" stroke-linecap="round" stroke-miterlimit="10" x1="429.7" y1="-68.4" x2="422.3" y2="-61"/>
			</g>
			<g>
				
					<line fill="none" stroke="#231F20" stroke-width="3" stroke-linecap="round" stroke-miterlimit="10" x1="315" y1="-152.3" x2="322.4" y2="-144.9"/>
				
					<line fill="none" stroke="#231F20" stroke-width="3" stroke-linecap="round" stroke-miterlimit="10" x1="322.4" y1="-152.3" x2="315" y2="-144.9"/>
			</g>
			<path fill="#231F20" d="M493.3-103.3c0.2,1.9-1.2,3.6-3.1,3.8s-3.6-1.2-3.8-3.1c-0.2-1.9,1.2-3.6,3.1-3.8
				C491.4-106.6,493.1-105.2,493.3-103.3z"/>
			<polygon fill="none" stroke="#231F20" stroke-width="3" stroke-linecap="round" stroke-miterlimit="10" points="530.1,-68.4 
				520.1,-59.5 519.1,-72.8 507.6,-79.5 519.9,-84.6 522.8,-97.6 531.4,-87.4 544.7,-88.8 537.7,-77.4 543,-65.2 			"/>
			<path fill="none" stroke="#231F20" stroke-width="3" stroke-linecap="round" stroke-miterlimit="10" d="M402.7-162.3
				c0,0,26.8-4.3,36,13"/>
			<path fill="none" stroke="#231F20" stroke-width="3" stroke-linecap="round" stroke-miterlimit="10" d="M441.7-87.2
				c0,0-0.9,14.1,12.5,16.4"/>
			<g>
				
					<path fill="none" stroke="#231F20" stroke-width="2.7895" stroke-linecap="round" stroke-linejoin="round" stroke-miterlimit="10" d="
					M387-129.9c0.1-2.9,3.6-4.4,6.1-4.2c2.7,0.2,5.2,1.5,7.8,2.3c1.1,0.3,2.3,0.5,3.5,0.2c1.1-0.3,2.1-1.4,2.1-2.5
					c-0.1-1.8-2.4-2.8-2.9-4.6c-0.4-1.4,0.5-2.9,1.7-3.6c1.2-0.7,2.8-0.8,4.2-0.8c6.5,0.2,12.5,3.2,18.2,6.5
					c1.5,0.9,3.1,1.8,4.1,3.2c1,1.4,1.5,3.4,0.6,4.9c-1.3,2.2-4.4,2.3-6.5,3.9c-2.4,1.8-1.9,4.8-2.1,7.4"/>
				<g>
					
						<path fill="none" stroke="#231F20" stroke-width="2.7895" stroke-linecap="round" stroke-linejoin="round" stroke-miterlimit="10" d="
						M380.5-122.2l2-5.9l14.1,7.6c4.2,2.3,8.8,3.8,13.6,4.6l15.9,2.6L419.2-93c-4.4,12.9-17.7,20.1-29.8,16l0,0
						c-6-2.1-10.6-6.5-13.1-12.1"/>
					<path fill="none" stroke="#231F20" stroke-width="2.7895" stroke-miterlimit="10" d="M383.4-91.2c-0.9-0.1-1.6-1-1.4-1.9
						c1.1-5.7,8-9.6,15.4-7.1c7.4,2.5,10.4,9.8,7.8,15c-0.4,0.9-1.5,1.2-2.3,0.7C397-88.2,390.3-90.4,383.4-91.2z"/>
					<g>
						<path fill="none" stroke="#231F20" stroke-width="2.7895" stroke-miterlimit="10" d="M393.8-107.2c-0.6,1.8-1.5-0.5-3.3-1.1
							s-3.9,0.7-3.3-1.1c0.6-1.8,2.6-2.8,4.4-2.2C393.5-111,394.5-109,393.8-107.2z"/>
						<path fill="none" stroke="#231F20" stroke-width="2.7895" stroke-miterlimit="10" d="M411-101.3c-0.6,1.8-1.5-0.5-3.3-1.1
							s-3.9,0.7-3.3-1.1c0.6-1.8,2.6-2.8,4.4-2.2S411.6-103.1,411-101.3z"/>
					</g>
					<path fill="none" stroke="#231F20" stroke-width="2.7895" stroke-miterlimit="10" d="M413.4-90.4c-0.2,1.4-1.7,2.1-3,1.5
						c-0.8-0.4-1.2-1.3-1.1-2.1c0.2-1.4,3.9-5.1,3.9-5.1S413.6-91.3,413.4-90.4z"/>
				</g>
			</g>
			<g>
				<g>
					
						<path fill="none" stroke="#231F20" stroke-width="2.7895" stroke-linecap="round" stroke-linejoin="round" stroke-miterlimit="10" d="
						M357.3-84.2L357.3-84.2c-13.3,2-25.9-8-28.1-22.3l-3.3-21.9l17.1,0.3c5.1,0.1,10.2-0.7,15.1-2.3l16.2-5.3l3.3,21.9
						C379.7-99.5,370.6-86.2,357.3-84.2z"/>
					<path fill="none" stroke="#231F20" stroke-width="2.7895" stroke-miterlimit="10" d="M365.7-108c1.1-0.2,2,0.7,2,1.8
						c0,6.7-4.9,12.6-11.7,13.6s-13.3-3.2-15.2-9.6c-0.3-1,0.4-2.1,1.4-2.3L365.7-108z"/>
					<g>
						<path fill="none" stroke="#231F20" stroke-width="2.7895" stroke-miterlimit="10" d="M346.7-114.7c0.3,2-1.6,0.2-3.7,0.6
							c-2,0.3-3.4,2.6-3.7,0.6c-0.3-2,1.1-3.9,3.1-4.2C344.5-118.1,346.4-116.8,346.7-114.7z"/>
						<path fill="none" stroke="#231F20" stroke-width="2.7895" stroke-miterlimit="10" d="M365.7-117.6c0.3,2-1.6,0.2-3.7,0.6
							c-2,0.3-3.4,2.6-3.7,0.6c-0.3-2,1.1-3.9,3.1-4.2C363.5-121,365.4-119.6,365.7-117.6z"/>
					</g>
				</g>
				
					<path fill="none" stroke="#231F20" stroke-width="2.7895" stroke-linecap="round" stroke-linejoin="round" stroke-miterlimit="10" d="
					M328.4-131.4c-1.3-2.8,1.2-5.9,3.7-6.9c2.6-1.1,5.6-1.1,8.5-1.6c1.2-0.2,2.5-0.6,3.4-1.5c0.9-0.9,1.3-2.3,0.7-3.4
					c-1-1.7-3.6-1.5-5-2.9c-1.1-1.1-1-3-0.2-4.3c0.8-1.3,2.2-2.1,3.6-2.8c6.2-2.9,13.4-3.1,20.3-2.8c1.9,0.1,3.8,0.2,5.4,1
					c1.7,0.8,3.1,2.5,3,4.3c-0.1,2.7-3,4.3-4.2,6.8c-1.4,2.9,0.5,5.4,1.7,8"/>
			</g>
			
				<path fill="none" stroke="#231F20" stroke-width="2.7895" stroke-linecap="round" stroke-linejoin="round" stroke-miterlimit="10" d="
				M315-95.5c0,0-2.5,23.1,19.7,30.7"/>
			
				<path fill="none" stroke="#231F20" stroke-width="2.7895" stroke-linecap="round" stroke-linejoin="round" stroke-miterlimit="10" d="
				M462.6-86.2c0,0,23.7,2.6,31,26.3"/>
			
				<path fill="none" stroke="#231F20" stroke-width="2.7895" stroke-linecap="round" stroke-linejoin="round" stroke-miterlimit="10" d="
				M521.7-117.9c0,0,14.8-4.3,19.6,8.1"/>
		</g>
		<g>
			<path fill="none" stroke="#231F20" stroke-width="3" stroke-miterlimit="10" d="M260.2-17c1.4-2.4,4.3-3.5,6.4-2.5
				c1.7-3,3.4-6.1,5.2-9.2c-17.9-7.6-36.4-18.4-54.6-32.3c-1.7,2.5-3.5,5-5.2,7.4c0.1,0.1,0.2,0.1,0.3,0.2c2.2,1.7,2.8,4.7,1.4,6.6
				c-1.4,2-4.3,2.1-6.4,0.3c-0.1-0.1-0.2-0.1-0.2-0.2c-1.7,2.4-3.4,4.7-5.2,7.1c17.9,15.7,36.4,28.2,54.6,37.6
				c1.7-2.9,3.5-5.9,5.2-8.8C259.4-11.9,258.8-14.7,260.2-17z"/>
			<path fill="#231F20" d="M201.4-120.7l2.1,4.2c0.1,0.3,0.3,0.5,0.6,0.6l3.9,2.3c1,0.6,1,2.1,0,2.7l-3.9,2.3
				c-0.2,0.1-0.4,0.4-0.6,0.6l-2.1,4.2c-0.5,1.1-1.9,1.1-2.4,0l-2.1-4.2c-0.1-0.3-0.3-0.5-0.6-0.6l-3.9-2.3c-1-0.6-1-2.1,0-2.7
				l3.9-2.3c0.2-0.1,0.4-0.4,0.6-0.6l2.1-4.2C199.5-121.8,200.9-121.8,201.4-120.7z"/>
			<path fill="none" stroke="#231F20" stroke-width="3" stroke-miterlimit="10" d="M241.5-137.1c0.5,1.7-0.6,4-2.4,5.2
				c0.6,2.1,1.3,4.3,1.9,6.4c15.6-9.3,32.5-13,47.8-11.1c-0.6-2.6-1.3-5.2-1.9-7.8c-0.1,0-0.1,0-0.2,0c-1.8-0.2-3.8-1.9-4.3-3.9
				c-0.5-2,0.6-3.7,2.4-3.6c0.1,0,0.1,0,0.2,0c-0.6-2.6-1.3-5.2-1.9-7.7c-15.6-0.6-32.5,4.5-47.8,15.2c0.6,2.1,1.3,4.2,1.9,6.3
				C239.1-139.4,241-138.8,241.5-137.1z"/>
			<path fill="none" stroke="#231F20" stroke-width="3" stroke-miterlimit="10" d="M109.1-72l2.7,5.5c0.2,0.3,0.4,0.6,0.7,0.8l5,3
				c1.2,0.7,1.2,2.7,0,3.5l-5,3c-0.3,0.2-0.5,0.5-0.7,0.8l-2.7,5.5c-0.7,1.4-2.5,1.4-3.1,0l-2.7-5.5c-0.2-0.3-0.4-0.6-0.7-0.8l-5-3
				c-1.2-0.7-1.2-2.7,0-3.5l5-3c0.3-0.2,0.5-0.5,0.7-0.8L106-72C106.7-73.4,108.5-73.4,109.1-72z"/>
			<g>
				
					<line fill="none" stroke="#231F20" stroke-width="3" stroke-linecap="round" stroke-miterlimit="10" x1="172.3" y1="-68.4" x2="179.7" y2="-61"/>
				
					<line fill="none" stroke="#231F20" stroke-width="3" stroke-linecap="round" stroke-miterlimit="10" x1="179.7" y1="-68.4" x2="172.3" y2="-61"/>
			</g>
			<g>
				
					<line fill="none" stroke="#231F20" stroke-width="3" stroke-linecap="round" stroke-miterlimit="10" x1="65" y1="-152.3" x2="72.4" y2="-144.9"/>
				
					<line fill="none" stroke="#231F20" stroke-width="3" stroke-linecap="round" stroke-miterlimit="10" x1="72.4" y1="-152.3" x2="65" y2="-144.9"/>
			</g>
			<path fill="#231F20" d="M243.3-103.3c0.2,1.9-1.2,3.6-3.1,3.8s-3.6-1.2-3.8-3.1c-0.2-1.9,1.2-3.6,3.1-3.8
				C241.4-106.6,243.1-105.2,243.3-103.3z"/>
			<polygon fill="none" stroke="#231F20" stroke-width="3" stroke-linecap="round" stroke-miterlimit="10" points="280.1,-68.4 
				270.1,-59.5 269.1,-72.8 257.6,-79.5 269.9,-84.6 272.8,-97.6 281.4,-87.4 294.7,-88.8 287.7,-77.4 293,-65.2 			"/>
			<path fill="none" stroke="#231F20" stroke-width="3" stroke-linecap="round" stroke-miterlimit="10" d="M152.7-162.3
				c0,0,26.8-4.3,36,13"/>
			<path fill="none" stroke="#231F20" stroke-width="3" stroke-linecap="round" stroke-miterlimit="10" d="M191.7-87.2
				c0,0-0.9,14.1,12.5,16.4"/>
			<g>
				
					<path fill="none" stroke="#231F20" stroke-width="2.7895" stroke-linecap="round" stroke-linejoin="round" stroke-miterlimit="10" d="
					M137-129.9c0.1-2.9,3.6-4.4,6.1-4.2c2.7,0.2,5.2,1.5,7.8,2.3c1.1,0.3,2.3,0.5,3.5,0.2c1.1-0.3,2.1-1.4,2.1-2.5
					c-0.1-1.8-2.4-2.8-2.9-4.6c-0.4-1.4,0.5-2.9,1.7-3.6c1.2-0.7,2.8-0.8,4.2-0.8c6.5,0.2,12.5,3.2,18.2,6.5
					c1.5,0.9,3.1,1.8,4.1,3.2c1,1.4,1.5,3.4,0.6,4.9c-1.3,2.2-4.4,2.3-6.5,3.9c-2.4,1.8-1.9,4.8-2.1,7.4"/>
				<g>
					
						<path fill="none" stroke="#231F20" stroke-width="2.7895" stroke-linecap="round" stroke-linejoin="round" stroke-miterlimit="10" d="
						M130.5-122.2l2-5.9l14.1,7.6c4.2,2.3,8.8,3.8,13.6,4.6l15.9,2.6L169.2-93c-4.4,12.9-17.7,20.1-29.8,16l0,0
						c-6-2.1-10.6-6.5-13.1-12.1"/>
					<path fill="none" stroke="#231F20" stroke-width="2.7895" stroke-miterlimit="10" d="M133.4-91.2c-0.9-0.1-1.6-1-1.4-1.9
						c1.1-5.7,8-9.6,15.4-7.1c7.4,2.5,10.4,9.8,7.8,15c-0.4,0.9-1.5,1.2-2.3,0.7C147-88.2,140.3-90.4,133.4-91.2z"/>
					<g>
						<path fill="none" stroke="#231F20" stroke-width="2.7895" stroke-miterlimit="10" d="M143.8-107.2c-0.6,1.8-1.5-0.5-3.3-1.1
							s-3.9,0.7-3.3-1.1c0.6-1.8,2.6-2.8,4.4-2.2C143.5-111,144.5-109,143.8-107.2z"/>
						<path fill="none" stroke="#231F20" stroke-width="2.7895" stroke-miterlimit="10" d="M161-101.3c-0.6,1.8-1.5-0.5-3.3-1.1
							c-1.8-0.6-3.9,0.7-3.3-1.1c0.6-1.8,2.6-2.8,4.4-2.2C160.7-105.1,161.6-103.1,161-101.3z"/>
					</g>
					<path fill="none" stroke="#231F20" stroke-width="2.7895" stroke-miterlimit="10" d="M163.4-90.4c-0.2,1.4-1.7,2.1-3,1.5
						c-0.8-0.4-1.2-1.3-1.1-2.1c0.2-1.4,3.9-5.1,3.9-5.1S163.6-91.3,163.4-90.4z"/>
				</g>
			</g>
			<g>
				<g>
					
						<path fill="none" stroke="#231F20" stroke-width="2.7895" stroke-linecap="round" stroke-linejoin="round" stroke-miterlimit="10" d="
						M107.3-84.2L107.3-84.2c-13.3,2-25.9-8-28.1-22.3l-3.3-21.9l17.1,0.3c5.1,0.1,10.2-0.7,15.1-2.3l16.2-5.3l3.3,21.9
						C129.7-99.5,120.6-86.2,107.3-84.2z"/>
					<path fill="none" stroke="#231F20" stroke-width="2.7895" stroke-miterlimit="10" d="M115.7-108c1.1-0.2,2,0.7,2,1.8
						c0,6.7-4.9,12.6-11.7,13.6c-6.8,1-13.3-3.2-15.2-9.6c-0.3-1,0.4-2.1,1.4-2.3L115.7-108z"/>
					<g>
						<path fill="none" stroke="#231F20" stroke-width="2.7895" stroke-miterlimit="10" d="M96.7-114.7c0.3,2-1.6,0.2-3.7,0.6
							c-2,0.3-3.4,2.6-3.7,0.6c-0.3-2,1.1-3.9,3.1-4.2C94.5-118.1,96.4-116.8,96.7-114.7z"/>
						<path fill="none" stroke="#231F20" stroke-width="2.7895" stroke-miterlimit="10" d="M115.7-117.6c0.3,2-1.6,0.2-3.7,0.6
							c-2,0.3-3.4,2.6-3.7,0.6c-0.3-2,1.1-3.9,3.1-4.2C113.5-121,115.4-119.6,115.7-117.6z"/>
					</g>
				</g>
				
					<path fill="none" stroke="#231F20" stroke-width="2.7895" stroke-linecap="round" stroke-linejoin="round" stroke-miterlimit="10" d="
					M78.4-131.4c-1.3-2.8,1.2-5.9,3.7-6.9c2.6-1.1,5.6-1.1,8.5-1.6c1.2-0.2,2.5-0.6,3.4-1.5c0.9-0.9,1.3-2.3,0.7-3.4
					c-1-1.7-3.6-1.5-5-2.9c-1.1-1.1-1-3-0.2-4.3c0.8-1.3,2.2-2.1,3.6-2.8c6.2-2.9,13.4-3.1,20.3-2.8c1.9,0.1,3.8,0.2,5.4,1
					c1.7,0.8,3.1,2.5,3,4.3c-0.1,2.7-3,4.3-4.2,6.8c-1.4,2.9,0.5,5.4,1.7,8"/>
			</g>
			
				<path fill="none" stroke="#231F20" stroke-width="2.7895" stroke-linecap="round" stroke-linejoin="round" stroke-miterlimit="10" d="
				M65-95.5c0,0-2.5,23.1,19.7,30.7"/>
			
				<path fill="none" stroke="#231F20" stroke-width="2.7895" stroke-linecap="round" stroke-linejoin="round" stroke-miterlimit="10" d="
				M212.6-86.2c0,0,23.7,2.6,31,26.3"/>
			
				<path fill="none" stroke="#231F20" stroke-width="2.7895" stroke-linecap="round" stroke-linejoin="round" stroke-miterlimit="10" d="
				M271.7-117.9c0,0,14.8-4.3,19.6,8.1"/>
		</g>
		<g>
			<path fill="none" stroke="#231F20" stroke-width="3" stroke-miterlimit="10" d="M484.1-301.3l2.7,5.5c0.2,0.3,0.4,0.6,0.7,0.8
				l5,3c1.2,0.7,1.2,2.7,0,3.5l-5,3c-0.3,0.2-0.5,0.5-0.7,0.8l-2.7,5.5c-0.7,1.4-2.5,1.4-3.1,0l-2.7-5.5c-0.2-0.3-0.4-0.6-0.7-0.8
				l-5-3c-1.2-0.7-1.2-2.7,0-3.5l5-3c0.3-0.2,0.5-0.5,0.7-0.8l2.7-5.5C481.7-302.7,483.5-302.7,484.1-301.3z"/>
			<g>
				<g>
					<path fill="none" stroke="#231F20" stroke-width="2.7895" stroke-miterlimit="10" d="M468.8-223.1l27.3,25.9
						c3.9,3.7,4.1,10,0.3,13.9v0c-3.7,3.9-10,4.1-13.9,0.3l-27.9-26.5"/>
					
						<line fill="none" stroke="#231F20" stroke-width="2.7895" stroke-miterlimit="10" x1="478.5" y1="-186.6" x2="492.1" y2="-200.9"/>
					
						<line fill="none" stroke="#231F20" stroke-width="2.7895" stroke-miterlimit="10" x1="474.8" y1="-190.2" x2="488.4" y2="-204.4"/>
					
						<line fill="none" stroke="#231F20" stroke-width="2.7895" stroke-miterlimit="10" x1="469.4" y1="-208.9" x2="475.1" y2="-203.4"/>
					<path fill="none" stroke="#231F20" stroke-width="2.7895" stroke-miterlimit="10" d="M462.8-240.3c7.3,6.9,7.6,18.5,0.6,25.8
						c-6.9,7.3-18.5,7.6-25.8,0.6s-7.6-18.5-0.6-25.8C444-247,455.5-247.3,462.8-240.3z"/>
					
						<line fill="none" stroke="#231F20" stroke-width="2.7895" stroke-miterlimit="10" x1="437.7" y1="-213.9" x2="462.8" y2="-240.3"/>
				</g>
				
					<line fill="none" stroke="#231F20" stroke-width="2.7895" stroke-linecap="round" stroke-miterlimit="10" x1="496.4" y1="-183.2" x2="503.1" y2="-177.2"/>
			</g>
			<g>
				<polyline fill="none" stroke="#231F20" stroke-width="3" stroke-miterlimit="10" points="539.5,-222 523,-248.5 543.9,-261.5 
					560.4,-235 				"/>
				<path fill="none" stroke="#231F20" stroke-width="3" stroke-miterlimit="10" d="M539.5-222c2.1,3.4,1.1,7.8-2.3,9.9
					s-7.8,1.1-9.9-2.3c-2.1-3.4-1.1-7.8,2.3-9.9S537.4-225.3,539.5-222z"/>
				<path fill="none" stroke="#231F20" stroke-width="3" stroke-miterlimit="10" d="M560.4-235c2.1,3.4,1.1,7.8-2.3,9.9
					s-7.8,1.1-9.9-2.3c-2.1-3.4-1.1-7.8,2.3-9.9C553.9-239.4,558.3-238.4,560.4-235z"/>
				<line fill="none" stroke="#231F20" stroke-width="3" stroke-miterlimit="10" x1="527.9" y1="-240.7" x2="548.8" y2="-253.7"/>
			</g>
			<g>
				
					<line fill="none" stroke="#231F20" stroke-width="3" stroke-linecap="round" stroke-miterlimit="10" x1="547.3" y1="-297.8" x2="554.7" y2="-290.4"/>
				
					<line fill="none" stroke="#231F20" stroke-width="3" stroke-linecap="round" stroke-miterlimit="10" x1="554.7" y1="-297.8" x2="547.3" y2="-290.4"/>
			</g>
			<g>
				
					<line fill="none" stroke="#231F20" stroke-width="3" stroke-linecap="round" stroke-miterlimit="10" x1="440" y1="-381.7" x2="447.4" y2="-374.3"/>
				
					<line fill="none" stroke="#231F20" stroke-width="3" stroke-linecap="round" stroke-miterlimit="10" x1="447.4" y1="-381.7" x2="440" y2="-374.3"/>
			</g>
			<path fill="#231F20" d="M506.4-261.1c0.2,1.9-1.2,3.6-3.1,3.8c-1.9,0.2-3.6-1.2-3.8-3.1c-0.2-1.9,1.2-3.6,3.1-3.8
				S506.2-263,506.4-261.1z"/>
			<path fill="none" stroke="#231F20" stroke-width="2" stroke-miterlimit="10" d="M443.4-275.4c0.2,1.9-1.2,3.6-3.1,3.8
				c-1.9,0.2-3.6-1.2-3.8-3.1c-0.2-1.9,1.2-3.6,3.1-3.8C441.6-278.7,443.2-277.3,443.4-275.4z"/>
			<path fill="none" stroke="#231F20" stroke-width="3" stroke-linecap="round" stroke-miterlimit="10" d="M527.7-391.6
				c0,0,26.8-4.3,36,13"/>
			<path fill="none" stroke="#231F20" stroke-width="3" stroke-linecap="round" stroke-miterlimit="10" d="M520.9-193.6
				c0,0,7.3,13.9,22,3.5"/>
			<path fill="none" stroke="#231F20" stroke-width="3" stroke-linecap="round" stroke-miterlimit="10" d="M437.7-190.2
				c0,0,0.5,8.6,9.7,7.3"/>
			<path fill="none" stroke="#231F20" stroke-width="3" stroke-linecap="round" stroke-miterlimit="10" d="M476.9-252.4
				c0,0,14.5,3.2,11,16.2"/>
			<path fill="none" stroke="#231F20" stroke-width="3" stroke-linecap="round" stroke-miterlimit="10" d="M510.2-282.1
				c0,0,13.3-3.9,15.5,7"/>
			<g>
				
					<line fill="none" stroke="#231F20" stroke-width="3" stroke-linecap="round" stroke-miterlimit="10" x1="456" y1="-155.1" x2="463.4" y2="-147.7"/>
				
					<line fill="none" stroke="#231F20" stroke-width="3" stroke-linecap="round" stroke-miterlimit="10" x1="463.4" y1="-155.1" x2="456" y2="-147.7"/>
			</g>
			<g>
				
					<path fill="none" stroke="#231F20" stroke-width="2.7895" stroke-linecap="round" stroke-linejoin="round" stroke-miterlimit="10" d="
					M512-359.2c0.1-2.9,3.6-4.4,6.1-4.2c2.7,0.2,5.2,1.5,7.8,2.3c1.1,0.3,2.3,0.5,3.5,0.2c1.1-0.3,2.1-1.4,2.1-2.5
					c-0.1-1.8-2.4-2.8-2.9-4.6c-0.4-1.4,0.5-2.9,1.7-3.6s2.8-0.8,4.2-0.8c6.5,0.2,12.5,3.2,18.2,6.5c1.5,0.9,3.1,1.8,4.1,3.2
					c1,1.4,1.5,3.4,0.6,4.9c-1.3,2.2-4.4,2.3-6.5,3.9c-2.4,1.8-1.9,4.8-2.1,7.4"/>
				<g>
					
						<path fill="none" stroke="#231F20" stroke-width="2.7895" stroke-linecap="round" stroke-linejoin="round" stroke-miterlimit="10" d="
						M505.5-351.6l2-5.9l14.1,7.6c4.2,2.3,8.8,3.8,13.6,4.6l15.9,2.6l-6.9,20.2c-4.4,12.9-17.7,20.1-29.8,16v0
						c-6-2.1-10.6-6.5-13.1-12.1"/>
					<path fill="none" stroke="#231F20" stroke-width="2.7895" stroke-miterlimit="10" d="M508.4-320.5c-0.9-0.1-1.6-1-1.4-1.9
						c1.1-5.7,8-9.6,15.4-7.1c7.4,2.5,10.4,9.8,7.8,15c-0.4,0.9-1.5,1.2-2.3,0.7C522-317.5,515.3-319.8,508.4-320.5z"/>
					<g>
						<path fill="none" stroke="#231F20" stroke-width="2.7895" stroke-miterlimit="10" d="M518.8-336.5c-0.6,1.8-1.5-0.5-3.3-1.1
							s-3.9,0.7-3.3-1.1c0.6-1.8,2.6-2.8,4.4-2.2C518.5-340.3,519.5-338.3,518.8-336.5z"/>
						<path fill="none" stroke="#231F20" stroke-width="2.7895" stroke-miterlimit="10" d="M536-330.6c-0.6,1.8-1.5-0.5-3.3-1.1
							c-1.8-0.6-3.9,0.7-3.3-1.1c0.6-1.8,2.6-2.8,4.4-2.2C535.7-334.5,536.6-332.5,536-330.6z"/>
					</g>
					<path fill="none" stroke="#231F20" stroke-width="2.7895" stroke-miterlimit="10" d="M538.4-319.8c-0.2,1.4-1.7,2.1-3,1.5
						c-0.8-0.4-1.2-1.3-1.1-2.1c0.2-1.4,3.9-5.1,3.9-5.1S538.6-320.6,538.4-319.8z"/>
				</g>
			</g>
			<g>
				<g>
					
						<path fill="none" stroke="#231F20" stroke-width="2.7895" stroke-linecap="round" stroke-linejoin="round" stroke-miterlimit="10" d="
						M482.3-313.5L482.3-313.5c-13.3,2-25.9-8-28.1-22.3l-3.3-21.9l17.1,0.3c5.1,0.1,10.2-0.7,15.1-2.3l16.2-5.3l3.3,21.9
						C504.7-328.8,495.6-315.5,482.3-313.5z"/>
					<path fill="none" stroke="#231F20" stroke-width="2.7895" stroke-miterlimit="10" d="M490.7-337.3c1.1-0.2,2,0.7,2,1.8
						c0,6.7-4.9,12.6-11.7,13.6s-13.3-3.2-15.2-9.6c-0.3-1,0.4-2.1,1.4-2.3L490.7-337.3z"/>
					<g>
						<path fill="none" stroke="#231F20" stroke-width="2.7895" stroke-miterlimit="10" d="M471.7-344c0.3,2-1.6,0.2-3.7,0.6
							c-2,0.3-3.4,2.6-3.7,0.6c-0.3-2,1.1-3.9,3.1-4.2C469.5-347.5,471.4-346.1,471.7-344z"/>
						<path fill="none" stroke="#231F20" stroke-width="2.7895" stroke-miterlimit="10" d="M490.7-346.9c0.3,2-1.6,0.2-3.7,0.6
							c-2,0.3-3.4,2.6-3.7,0.6c-0.3-2,1.1-3.9,3.1-4.2C488.5-350.3,490.4-348.9,490.7-346.9z"/>
					</g>
				</g>
				
					<path fill="none" stroke="#231F20" stroke-width="2.7895" stroke-linecap="round" stroke-linejoin="round" stroke-miterlimit="10" d="
					M453.4-360.7c-1.3-2.8,1.2-5.9,3.7-6.9c2.6-1.1,5.6-1.1,8.5-1.6c1.2-0.2,2.5-0.6,3.4-1.5c0.9-0.9,1.3-2.3,0.7-3.4
					c-1-1.7-3.6-1.5-5-2.9c-1.1-1.1-1-3-0.2-4.3c0.8-1.3,2.2-2.1,3.6-2.8c6.2-2.9,13.4-3.1,20.3-2.8c1.9,0.1,3.8,0.2,5.4,1
					c1.7,0.8,3.1,2.5,3,4.3c-0.1,2.7-3,4.3-4.2,6.8c-1.4,2.9,0.5,5.4,1.7,8"/>
			</g>
			
				<path fill="none" stroke="#231F20" stroke-width="2.7895" stroke-linecap="round" stroke-linejoin="round" stroke-miterlimit="10" d="
				M440-324.8c0,0-2.5,23.1,19.7,30.7"/>
		</g>
		<g>
			<path fill="none" stroke="#231F20" stroke-width="3" stroke-miterlimit="10" d="M385.2-246.4c1.4-2.4,4.3-3.5,6.4-2.5
				c1.7-3,3.4-6.1,5.2-9.2c-17.9-7.6-36.4-18.4-54.6-32.3c-1.7,2.5-3.5,5-5.2,7.4c0.1,0.1,0.2,0.1,0.3,0.2c2.2,1.7,2.8,4.7,1.4,6.6
				c-1.4,2-4.3,2.1-6.4,0.3c-0.1-0.1-0.2-0.1-0.2-0.2c-1.7,2.4-3.4,4.7-5.2,7.1c17.9,15.7,36.4,28.2,54.6,37.6
				c1.7-2.9,3.5-5.9,5.2-8.8C384.4-241.2,383.8-244,385.2-246.4z"/>
			<path fill="#231F20" d="M326.4-350.1l2.1,4.2c0.1,0.3,0.3,0.5,0.6,0.6l3.9,2.3c1,0.6,1,2.1,0,2.7l-3.9,2.3
				c-0.2,0.1-0.4,0.4-0.6,0.6l-2.1,4.2c-0.5,1.1-1.9,1.1-2.4,0l-2.1-4.2c-0.1-0.3-0.3-0.5-0.6-0.6l-3.9-2.3c-1-0.6-1-2.1,0-2.7
				l3.9-2.3c0.2-0.1,0.4-0.4,0.6-0.6l2.1-4.2C324.5-351.1,325.9-351.1,326.4-350.1z"/>
			<path fill="none" stroke="#231F20" stroke-width="3" stroke-linecap="round" stroke-miterlimit="10" d="M384.8-178.7l2.1,4.2
				c0.1,0.3,0.3,0.5,0.6,0.6l3.9,2.3c1,0.6,1,2.1,0,2.7l-3.9,2.3c-0.2,0.1-0.4,0.4-0.6,0.6l-2.1,4.2c-0.5,1.1-1.9,1.1-2.4,0
				l-2.1-4.2c-0.1-0.3-0.3-0.5-0.6-0.6l-3.9-2.3c-1-0.6-1-2.1,0-2.7l3.9-2.3c0.2-0.1,0.4-0.4,0.6-0.6l2.1-4.2
				C382.9-179.8,384.3-179.8,384.8-178.7z"/>
			<path fill="none" stroke="#231F20" stroke-width="3" stroke-miterlimit="10" d="M366.5-366.4c0.5,1.7-0.6,4-2.4,5.2
				c0.6,2.1,1.3,4.3,1.9,6.4c15.6-9.3,32.5-13,47.8-11.1c-0.6-2.6-1.3-5.2-1.9-7.8c-0.1,0-0.1,0-0.2,0c-1.8-0.2-3.8-1.9-4.3-3.9
				c-0.5-2,0.6-3.7,2.4-3.6c0.1,0,0.1,0,0.2,0c-0.6-2.6-1.3-5.2-1.9-7.7c-15.6-0.6-32.5,4.5-47.8,15.2c0.6,2.1,1.3,4.2,1.9,6.3
				C364.1-368.7,366-368.2,366.5-366.4z"/>
			<path fill="none" stroke="#231F20" stroke-width="3" stroke-miterlimit="10" d="M234.1-301.3l2.7,5.5c0.2,0.3,0.4,0.6,0.7,0.8
				l5,3c1.2,0.7,1.2,2.7,0,3.5l-5,3c-0.3,0.2-0.5,0.5-0.7,0.8l-2.7,5.5c-0.7,1.4-2.5,1.4-3.1,0l-2.7-5.5c-0.2-0.3-0.4-0.6-0.7-0.8
				l-5-3c-1.2-0.7-1.2-2.7,0-3.5l5-3c0.3-0.2,0.5-0.5,0.7-0.8l2.7-5.5C231.7-302.7,233.5-302.7,234.1-301.3z"/>
			<g>
				<g>
					<path fill="none" stroke="#231F20" stroke-width="2.7895" stroke-miterlimit="10" d="M218.8-223.1l27.3,25.9
						c3.9,3.7,4.1,10,0.3,13.9l0,0c-3.7,3.9-10,4.1-13.9,0.3l-27.9-26.5"/>
					
						<line fill="none" stroke="#231F20" stroke-width="2.7895" stroke-miterlimit="10" x1="228.5" y1="-186.6" x2="242.1" y2="-200.9"/>
					
						<line fill="none" stroke="#231F20" stroke-width="2.7895" stroke-miterlimit="10" x1="224.8" y1="-190.2" x2="238.4" y2="-204.4"/>
					
						<line fill="none" stroke="#231F20" stroke-width="2.7895" stroke-miterlimit="10" x1="219.4" y1="-208.9" x2="225.1" y2="-203.4"/>
					<path fill="none" stroke="#231F20" stroke-width="2.7895" stroke-miterlimit="10" d="M212.8-240.3c7.3,6.9,7.6,18.5,0.6,25.8
						c-6.9,7.3-18.5,7.6-25.8,0.6c-7.3-6.9-7.6-18.5-0.6-25.8C194-247,205.5-247.3,212.8-240.3z"/>
					
						<line fill="none" stroke="#231F20" stroke-width="2.7895" stroke-miterlimit="10" x1="187.7" y1="-213.9" x2="212.8" y2="-240.3"/>
				</g>
				
					<line fill="none" stroke="#231F20" stroke-width="2.7895" stroke-linecap="round" stroke-miterlimit="10" x1="246.4" y1="-183.2" x2="253.1" y2="-177.2"/>
			</g>
			<g>
				<polyline fill="none" stroke="#231F20" stroke-width="3" stroke-miterlimit="10" points="289.5,-222 273,-248.5 293.9,-261.5 
					310.4,-235 				"/>
				<path fill="none" stroke="#231F20" stroke-width="3" stroke-miterlimit="10" d="M289.5-222c2.1,3.4,1.1,7.8-2.3,9.9
					c-3.4,2.1-7.8,1.1-9.9-2.3c-2.1-3.4-1.1-7.8,2.3-9.9C283-226.4,287.4-225.3,289.5-222z"/>
				<path fill="none" stroke="#231F20" stroke-width="3" stroke-miterlimit="10" d="M310.4-235c2.1,3.4,1.1,7.8-2.3,9.9
					c-3.4,2.1-7.8,1.1-9.9-2.3c-2.1-3.4-1.1-7.8,2.3-9.9S308.3-238.4,310.4-235z"/>
				<line fill="none" stroke="#231F20" stroke-width="3" stroke-miterlimit="10" x1="277.9" y1="-240.7" x2="298.8" y2="-253.7"/>
			</g>
			<g>
				
					<line fill="none" stroke="#231F20" stroke-width="3" stroke-linecap="round" stroke-miterlimit="10" x1="297.3" y1="-297.8" x2="304.7" y2="-290.4"/>
				
					<line fill="none" stroke="#231F20" stroke-width="3" stroke-linecap="round" stroke-miterlimit="10" x1="304.7" y1="-297.8" x2="297.3" y2="-290.4"/>
			</g>
			<g>
				
					<line fill="none" stroke="#231F20" stroke-width="3" stroke-linecap="round" stroke-miterlimit="10" x1="190" y1="-381.7" x2="197.4" y2="-374.3"/>
				
					<line fill="none" stroke="#231F20" stroke-width="3" stroke-linecap="round" stroke-miterlimit="10" x1="197.4" y1="-381.7" x2="190" y2="-374.3"/>
			</g>
			<path fill="#231F20" d="M256.4-261.1c0.2,1.9-1.2,3.6-3.1,3.8c-1.9,0.2-3.6-1.2-3.8-3.1c-0.2-1.9,1.2-3.6,3.1-3.8
				C254.6-264.4,256.2-263,256.4-261.1z"/>
			<path fill="#231F20" d="M368.3-332.6c0.2,1.9-1.2,3.6-3.1,3.8s-3.6-1.2-3.8-3.1c-0.2-1.9,1.2-3.6,3.1-3.8
				C366.4-335.9,368.1-334.5,368.3-332.6z"/>
			<path fill="#231F20" d="M372-194.1c0.2,1.9-1.2,3.6-3.1,3.8s-3.6-1.2-3.8-3.1c-0.2-1.9,1.2-3.6,3.1-3.8
				C370.2-197.4,371.8-196,372-194.1z"/>
			<path fill="none" stroke="#231F20" stroke-width="2" stroke-miterlimit="10" d="M193.4-275.4c0.2,1.9-1.2,3.6-3.1,3.8
				s-3.6-1.2-3.8-3.1c-0.2-1.9,1.2-3.6,3.1-3.8C191.6-278.7,193.2-277.3,193.4-275.4z"/>
			<path fill="none" stroke="#231F20" stroke-width="3" stroke-miterlimit="10" d="M350.4-191.4c-2.9-4.7-9.1-6.2-13.9-3.3l-2.4,1.5
				l-1.5-2.4c-2.9-4.7-9.1-6.2-13.9-3.3c-4.7,2.9-6.2,9.1-3.3,13.9l1.5,2.4l10.6,17.2l17.2-10.6l2.4-1.5
				C351.9-180.4,353.4-186.6,350.4-191.4z"/>
			<path fill="#231F20" d="M394.3-207.1c2,1.7,3.9,3.5,5.7,5.3c0.9,0.9,1.8,1.8,2.7,2.8c0.9,0.9,1.8,1.9,2.7,2.8l2.3,2.5l-3.5-0.4
				l-2.8-0.3c-0.9-0.1-1.8-0.2-2.8-0.4c-1.8-0.2-3.7-0.5-5.5-0.8l1.3-2.5c1.2,1.4,2.4,2.8,3.6,4.3c1.2,1.4,2.4,2.9,3.5,4.4
				c0.6,0.7,1.1,1.5,1.7,2.2c0.6,0.8,1.1,1.5,1.7,2.3c1.1,1.5,2.2,3,3.2,4.6c-1.5-1.2-2.8-2.5-4.2-3.7c-0.7-0.6-1.3-1.3-2-1.9
				c-0.7-0.6-1.3-1.3-2-2c-1.3-1.3-2.6-2.7-3.9-4c-1.3-1.3-2.5-2.7-3.8-4.1l-2.7-3l4,0.5c1.8,0.2,3.7,0.5,5.5,0.8
				c0.9,0.2,1.8,0.3,2.7,0.4l2.7,0.5l-1.2,2.2c-0.8-1-1.6-2-2.4-3.1c-0.8-1-1.6-2.1-2.3-3.1C397.1-202.8,395.6-204.9,394.3-207.1z"
				/>
			<path fill="none" stroke="#231F20" stroke-width="3" stroke-linecap="round" stroke-miterlimit="10" d="M406.6-234.5
				c2.1-2.3,5,0.5,7.1-1.8c2.1-2.3-0.9-5,1.2-7.2c2.1-2.3,5,0.5,7.1-1.8c2.1-2.3-0.9-5,1.2-7.2c2.1-2.3,5,0.5,7.1-1.8"/>
			<polygon fill="none" stroke="#231F20" stroke-width="3" stroke-linecap="round" stroke-miterlimit="10" points="405.1,-297.7 
				395.1,-288.8 394.1,-302.1 382.6,-308.8 394.9,-313.9 397.8,-326.9 406.4,-316.7 419.7,-318.1 412.7,-306.7 418,-294.5 			"/>
			<path fill="none" stroke="#231F20" stroke-width="3" stroke-linecap="round" stroke-miterlimit="10" d="M277.7-391.6
				c0,0,26.8-4.3,36,13"/>
			<path fill="none" stroke="#231F20" stroke-width="3" stroke-linecap="round" stroke-miterlimit="10" d="M329.2-234.5
				c0,0,11.5,30,45.5,21.6"/>
			<path fill="none" stroke="#231F20" stroke-width="3" stroke-linecap="round" stroke-miterlimit="10" d="M270.9-193.6
				c0,0,7.3,13.9,22,3.5"/>
			<path fill="none" stroke="#231F20" stroke-width="3" stroke-linecap="round" stroke-miterlimit="10" d="M187.7-190.2
				c0,0,0.5,8.6,9.7,7.3"/>
			<path fill="none" stroke="#231F20" stroke-width="3" stroke-linecap="round" stroke-miterlimit="10" d="M226.9-252.4
				c0,0,14.5,3.2,11,16.2"/>
			<path fill="none" stroke="#231F20" stroke-width="3" stroke-linecap="round" stroke-miterlimit="10" d="M260.2-282.1
				c0,0,13.3-3.9,15.5,7"/>
			<path fill="none" stroke="#231F20" stroke-width="3" stroke-linecap="round" stroke-miterlimit="10" d="M316.7-316.5
				c0,0-0.9,14.1,12.5,16.4"/>
			<g>
				
					<line fill="none" stroke="#231F20" stroke-width="3" stroke-linecap="round" stroke-miterlimit="10" x1="206" y1="-155.1" x2="213.4" y2="-147.7"/>
				
					<line fill="none" stroke="#231F20" stroke-width="3" stroke-linecap="round" stroke-miterlimit="10" x1="213.4" y1="-155.1" x2="206" y2="-147.7"/>
			</g>
			<g>
				
					<path fill="none" stroke="#231F20" stroke-width="2.7895" stroke-linecap="round" stroke-linejoin="round" stroke-miterlimit="10" d="
					M262-359.2c0.1-2.9,3.6-4.4,6.1-4.2c2.7,0.2,5.2,1.5,7.8,2.3c1.1,0.3,2.3,0.5,3.5,0.2c1.1-0.3,2.1-1.4,2.1-2.5
					c-0.1-1.8-2.4-2.8-2.9-4.6c-0.4-1.4,0.5-2.9,1.7-3.6c1.2-0.7,2.8-0.8,4.2-0.8c6.5,0.2,12.5,3.2,18.2,6.5
					c1.5,0.9,3.1,1.8,4.1,3.2c1,1.4,1.5,3.4,0.6,4.9c-1.3,2.2-4.4,2.3-6.5,3.9c-2.4,1.8-1.9,4.8-2.1,7.4"/>
				<g>
					
						<path fill="none" stroke="#231F20" stroke-width="2.7895" stroke-linecap="round" stroke-linejoin="round" stroke-miterlimit="10" d="
						M255.5-351.6l2-5.9l14.1,7.6c4.2,2.3,8.8,3.8,13.6,4.6l15.9,2.6l-6.9,20.2c-4.4,12.9-17.7,20.1-29.8,16l0,0
						c-6-2.1-10.6-6.5-13.1-12.1"/>
					<path fill="none" stroke="#231F20" stroke-width="2.7895" stroke-miterlimit="10" d="M258.4-320.5c-0.9-0.1-1.6-1-1.4-1.9
						c1.1-5.7,8-9.6,15.4-7.1c7.4,2.5,10.4,9.8,7.8,15c-0.4,0.9-1.5,1.2-2.3,0.7C272-317.5,265.3-319.8,258.4-320.5z"/>
					<g>
						<path fill="none" stroke="#231F20" stroke-width="2.7895" stroke-miterlimit="10" d="M268.8-336.5c-0.6,1.8-1.5-0.5-3.3-1.1
							s-3.9,0.7-3.3-1.1c0.6-1.8,2.6-2.8,4.4-2.2C268.5-340.3,269.5-338.3,268.8-336.5z"/>
						<path fill="none" stroke="#231F20" stroke-width="2.7895" stroke-miterlimit="10" d="M286-330.6c-0.6,1.8-1.5-0.5-3.3-1.1
							c-1.8-0.6-3.9,0.7-3.3-1.1c0.6-1.8,2.6-2.8,4.4-2.2C285.7-334.5,286.6-332.5,286-330.6z"/>
					</g>
					<path fill="none" stroke="#231F20" stroke-width="2.7895" stroke-miterlimit="10" d="M288.4-319.8c-0.2,1.4-1.7,2.1-3,1.5
						c-0.8-0.4-1.2-1.3-1.1-2.1c0.2-1.4,3.9-5.1,3.9-5.1S288.6-320.6,288.4-319.8z"/>
				</g>
			</g>
			<g>
				<g>
					
						<path fill="none" stroke="#231F20" stroke-width="2.7895" stroke-linecap="round" stroke-linejoin="round" stroke-miterlimit="10" d="
						M232.3-313.5L232.3-313.5c-13.3,2-25.9-8-28.1-22.3l-3.3-21.9l17.1,0.3c5.1,0.1,10.2-0.7,15.1-2.3l16.2-5.3l3.3,21.9
						C254.7-328.8,245.6-315.5,232.3-313.5z"/>
					<path fill="none" stroke="#231F20" stroke-width="2.7895" stroke-miterlimit="10" d="M240.7-337.3c1.1-0.2,2,0.7,2,1.8
						c0,6.7-4.9,12.6-11.7,13.6c-6.8,1-13.3-3.2-15.2-9.6c-0.3-1,0.4-2.1,1.4-2.3L240.7-337.3z"/>
					<g>
						<path fill="none" stroke="#231F20" stroke-width="2.7895" stroke-miterlimit="10" d="M221.7-344c0.3,2-1.6,0.2-3.7,0.6
							c-2,0.3-3.4,2.6-3.7,0.6c-0.3-2,1.1-3.9,3.1-4.2C219.5-347.5,221.4-346.1,221.7-344z"/>
						<path fill="none" stroke="#231F20" stroke-width="2.7895" stroke-miterlimit="10" d="M240.7-346.9c0.3,2-1.6,0.2-3.7,0.6
							c-2,0.3-3.4,2.6-3.7,0.6c-0.3-2,1.1-3.9,3.1-4.2C238.5-350.3,240.4-348.9,240.7-346.9z"/>
					</g>
				</g>
				
					<path fill="none" stroke="#231F20" stroke-width="2.7895" stroke-linecap="round" stroke-linejoin="round" stroke-miterlimit="10" d="
					M203.4-360.7c-1.3-2.8,1.2-5.9,3.7-6.9c2.6-1.1,5.6-1.1,8.5-1.6c1.2-0.2,2.5-0.6,3.4-1.5c0.9-0.9,1.3-2.3,0.7-3.4
					c-1-1.7-3.6-1.5-5-2.9c-1.1-1.1-1-3-0.2-4.3c0.8-1.3,2.2-2.1,3.6-2.8c6.2-2.9,13.4-3.1,20.3-2.8c1.9,0.1,3.8,0.2,5.4,1
					c1.7,0.8,3.1,2.5,3,4.3c-0.1,2.7-3,4.3-4.2,6.8c-1.4,2.9,0.5,5.4,1.7,8"/>
			</g>
			
				<path fill="none" stroke="#231F20" stroke-width="2.7895" stroke-linecap="round" stroke-linejoin="round" stroke-miterlimit="10" d="
				M190-324.8c0,0-2.5,23.1,19.7,30.7"/>
			
				<path fill="none" stroke="#231F20" stroke-width="2.7895" stroke-linecap="round" stroke-linejoin="round" stroke-miterlimit="10" d="
				M337.6-315.5c0,0,23.7,2.6,31,26.3"/>
			
				<path fill="none" stroke="#231F20" stroke-width="2.7895" stroke-linecap="round" stroke-linejoin="round" stroke-miterlimit="10" d="
				M396.7-347.2c0,0,14.8-4.3,19.6,8.1"/>
		</g>
		<g>
			<path fill="none" stroke="#231F20" stroke-width="3" stroke-miterlimit="10" d="M135.2-246.4c1.4-2.4,4.3-3.5,6.4-2.5
				c1.7-3,3.4-6.1,5.2-9.2c-17.9-7.6-36.4-18.4-54.6-32.3c-1.7,2.5-3.5,5-5.2,7.4c0.1,0.1,0.2,0.1,0.3,0.2c2.2,1.7,2.8,4.7,1.4,6.6
				c-1.4,2-4.3,2.1-6.4,0.3c-0.1-0.1-0.2-0.1-0.2-0.2c-1.7,2.4-3.4,4.7-5.2,7.1c17.9,15.7,36.4,28.2,54.6,37.6
				c1.7-2.9,3.5-5.9,5.2-8.8C134.4-241.2,133.8-244,135.2-246.4z"/>
			<path fill="#231F20" d="M76.4-350.1l2.1,4.2c0.1,0.3,0.3,0.5,0.6,0.6l3.9,2.3c1,0.6,1,2.1,0,2.7l-3.9,2.3
				c-0.2,0.1-0.4,0.4-0.6,0.6l-2.1,4.2c-0.5,1.1-1.9,1.1-2.4,0l-2.1-4.2c-0.1-0.3-0.3-0.5-0.6-0.6l-3.9-2.3c-1-0.6-1-2.1,0-2.7
				l3.9-2.3c0.2-0.1,0.4-0.4,0.6-0.6l2.1-4.2C74.5-351.1,75.9-351.1,76.4-350.1z"/>
			<path fill="none" stroke="#231F20" stroke-width="3" stroke-linecap="round" stroke-miterlimit="10" d="M134.8-178.7l2.1,4.2
				c0.1,0.3,0.3,0.5,0.6,0.6l3.9,2.3c1,0.6,1,2.1,0,2.7l-3.9,2.3c-0.2,0.1-0.4,0.4-0.6,0.6l-2.1,4.2c-0.5,1.1-1.9,1.1-2.4,0
				l-2.1-4.2c-0.1-0.3-0.3-0.5-0.6-0.6l-3.9-2.3c-1-0.6-1-2.1,0-2.7l3.9-2.3c0.2-0.1,0.4-0.4,0.6-0.6l2.1-4.2
				C132.9-179.8,134.3-179.8,134.8-178.7z"/>
			<path fill="none" stroke="#231F20" stroke-width="3" stroke-miterlimit="10" d="M116.5-366.4c0.5,1.7-0.6,4-2.4,5.2
				c0.6,2.1,1.3,4.3,1.9,6.4c15.6-9.3,32.5-13,47.8-11.1c-0.6-2.6-1.3-5.2-1.9-7.8c-0.1,0-0.1,0-0.2,0c-1.8-0.2-3.8-1.9-4.3-3.9
				c-0.5-2,0.6-3.7,2.4-3.6c0.1,0,0.1,0,0.2,0c-0.6-2.6-1.3-5.2-1.9-7.7c-15.6-0.6-32.5,4.5-47.8,15.2c0.6,2.1,1.3,4.2,1.9,6.3
				C114.1-368.7,116-368.2,116.5-366.4z"/>
			<g>
				<polyline fill="none" stroke="#231F20" stroke-width="3" stroke-miterlimit="10" points="39.5,-222 23,-248.5 43.9,-261.5 
					60.4,-235 				"/>
				<path fill="none" stroke="#231F20" stroke-width="3" stroke-miterlimit="10" d="M60.4-235c2.1,3.4,1.1,7.8-2.3,9.9
					c-3.4,2.1-7.8,1.1-9.9-2.3c-2.1-3.4-1.1-7.8,2.3-9.9C53.9-239.4,58.3-238.4,60.4-235z"/>
			</g>
			<g>
				
					<line fill="none" stroke="#231F20" stroke-width="3" stroke-linecap="round" stroke-miterlimit="10" x1="47.3" y1="-297.8" x2="54.7" y2="-290.4"/>
				
					<line fill="none" stroke="#231F20" stroke-width="3" stroke-linecap="round" stroke-miterlimit="10" x1="54.7" y1="-297.8" x2="47.3" y2="-290.4"/>
			</g>
			<path fill="#231F20" d="M118.3-332.6c0.2,1.9-1.2,3.6-3.1,3.8c-1.9,0.2-3.6-1.2-3.8-3.1c-0.2-1.9,1.2-3.6,3.1-3.8
				C116.4-335.9,118.1-334.5,118.3-332.6z"/>
			<path fill="#231F20" d="M122-194.1c0.2,1.9-1.2,3.6-3.1,3.8c-1.9,0.2-3.6-1.2-3.8-3.1c-0.2-1.9,1.2-3.6,3.1-3.8
				C120.2-197.4,121.8-196,122-194.1z"/>
			<path fill="none" stroke="#231F20" stroke-width="3" stroke-miterlimit="10" d="M100.4-191.4c-2.9-4.7-9.1-6.2-13.9-3.3l-2.4,1.5
				l-1.5-2.4c-2.9-4.7-9.1-6.2-13.9-3.3c-4.7,2.9-6.2,9.1-3.3,13.9l1.5,2.4l10.6,17.2L94.8-176l2.4-1.5
				C101.9-180.4,103.4-186.6,100.4-191.4z"/>
			<path fill="#231F20" d="M144.3-207.1c2,1.7,3.9,3.5,5.7,5.3c0.9,0.9,1.8,1.8,2.7,2.8c0.9,0.9,1.8,1.9,2.7,2.8l2.3,2.5l-3.5-0.4
				l-2.8-0.3c-0.9-0.1-1.8-0.2-2.8-0.4c-1.8-0.2-3.7-0.5-5.5-0.8l1.3-2.5c1.2,1.4,2.4,2.8,3.6,4.3c1.2,1.4,2.4,2.9,3.5,4.4
				c0.6,0.7,1.1,1.5,1.7,2.2c0.6,0.8,1.1,1.5,1.7,2.3c1.1,1.5,2.2,3,3.2,4.6c-1.5-1.2-2.8-2.5-4.2-3.7c-0.7-0.6-1.3-1.3-2-1.9
				c-0.7-0.6-1.3-1.3-2-2c-1.3-1.3-2.6-2.7-3.9-4c-1.3-1.3-2.5-2.7-3.8-4.1l-2.7-3l4,0.5c1.8,0.2,3.7,0.5,5.5,0.8
				c0.9,0.2,1.8,0.3,2.7,0.4l2.7,0.5l-1.2,2.2c-0.8-1-1.6-2-2.4-3.1c-0.8-1-1.6-2.1-2.3-3.1C147.1-202.8,145.6-204.9,144.3-207.1z"
				/>
			<path fill="none" stroke="#231F20" stroke-width="3" stroke-linecap="round" stroke-miterlimit="10" d="M156.6-234.5
				c2.1-2.3,5,0.5,7.1-1.8c2.1-2.3-0.9-5,1.2-7.2c2.1-2.3,5,0.5,7.1-1.8c2.1-2.3-0.9-5,1.2-7.2c2.1-2.3,5,0.5,7.1-1.8"/>
			<polygon fill="none" stroke="#231F20" stroke-width="3" stroke-linecap="round" stroke-miterlimit="10" points="155.1,-297.7 
				145.1,-288.8 144.1,-302.1 132.6,-308.8 144.9,-313.9 147.8,-326.9 156.4,-316.7 169.7,-318.1 162.7,-306.7 168,-294.5 			"/>
			<path fill="none" stroke="#231F20" stroke-width="3" stroke-linecap="round" stroke-miterlimit="10" d="M27.7-391.6
				c0,0,26.8-4.3,36,13"/>
			<path fill="none" stroke="#231F20" stroke-width="3" stroke-linecap="round" stroke-miterlimit="10" d="M79.2-234.5
				c0,0,11.5,30,45.5,21.6"/>
			<path fill="none" stroke="#231F20" stroke-width="3" stroke-linecap="round" stroke-miterlimit="10" d="M66.7-316.5
				c0,0-0.9,14.1,12.5,16.4"/>
			<g>
				
					<path fill="none" stroke="#231F20" stroke-width="2.7895" stroke-linecap="round" stroke-linejoin="round" stroke-miterlimit="10" d="
					M12-359.2c0.1-2.9,3.6-4.4,6.1-4.2c2.7,0.2,5.2,1.5,7.8,2.3c1.1,0.3,2.3,0.5,3.5,0.2c1.1-0.3,2.1-1.4,2.1-2.5
					c-0.1-1.8-2.4-2.8-2.9-4.6c-0.4-1.4,0.5-2.9,1.7-3.6s2.8-0.8,4.2-0.8c6.5,0.2,12.5,3.2,18.2,6.5c1.5,0.9,3.1,1.8,4.1,3.2
					c1,1.4,1.5,3.4,0.6,4.9c-1.3,2.2-4.4,2.3-6.5,3.9c-2.4,1.8-1.9,4.8-2.1,7.4"/>
				<g>
					
						<path fill="none" stroke="#231F20" stroke-width="2.7895" stroke-linecap="round" stroke-linejoin="round" stroke-miterlimit="10" d="
						M5.5-351.6l2-5.9l14.1,7.6c4.2,2.3,8.8,3.8,13.6,4.6l15.9,2.6l-6.9,20.2c-4.4,12.9-17.7,20.1-29.8,16l0,0
						c-6-2.1-10.6-6.5-13.1-12.1"/>
				</g>
			</g>
			
				<path fill="none" stroke="#231F20" stroke-width="2.7895" stroke-linecap="round" stroke-linejoin="round" stroke-miterlimit="10" d="
				M87.6-315.5c0,0,23.7,2.6,31,26.3"/>
			
				<path fill="none" stroke="#231F20" stroke-width="2.7895" stroke-linecap="round" stroke-linejoin="round" stroke-miterlimit="10" d="
				M146.7-347.2c0,0,14.8-4.3,19.6,8.1"/>
		</g>
		<g>
			<path fill="none" stroke="#231F20" stroke-width="3" stroke-miterlimit="10" d="M510.2-475.7c1.4-2.4,4.3-3.5,6.4-2.5
				c1.7-3,3.4-6.1,5.2-9.2c-17.9-7.6-36.4-18.4-54.6-32.3c-1.7,2.5-3.5,5-5.2,7.4c0.1,0.1,0.2,0.1,0.3,0.2c2.2,1.7,2.8,4.7,1.4,6.6
				c-1.4,2-4.3,2.1-6.4,0.3c-0.1-0.1-0.2-0.1-0.2-0.2c-1.7,2.4-3.4,4.7-5.2,7.1c17.9,15.7,36.4,28.2,54.6,37.6
				c1.7-2.9,3.5-5.9,5.2-8.8C509.4-470.5,508.8-473.3,510.2-475.7z"/>
			<path fill="none" stroke="#231F20" stroke-width="3" stroke-linecap="round" stroke-miterlimit="10" d="M509.8-408l2.1,4.2
				c0.1,0.3,0.3,0.5,0.6,0.6l3.9,2.3c1,0.6,1,2.1,0,2.7l-3.9,2.3c-0.2,0.1-0.4,0.4-0.6,0.6l-2.1,4.2c-0.5,1.1-1.9,1.1-2.4,0
				l-2.1-4.2c-0.1-0.3-0.3-0.5-0.6-0.6l-3.9-2.3c-1-0.6-1-2.1,0-2.7l3.9-2.3c0.2-0.1,0.4-0.4,0.6-0.6l2.1-4.2
				C507.9-409.1,509.3-409.1,509.8-408z"/>
			<path fill="none" stroke="#231F20" stroke-width="3" stroke-miterlimit="10" d="M359.1-530.7l2.7,5.5c0.2,0.3,0.4,0.6,0.7,0.8
				l5,3c1.2,0.7,1.2,2.7,0,3.5l-5,3c-0.3,0.2-0.5,0.5-0.7,0.8l-2.7,5.5c-0.7,1.4-2.5,1.4-3.1,0l-2.7-5.5c-0.2-0.3-0.4-0.6-0.7-0.8
				l-5-3c-1.2-0.7-1.2-2.7,0-3.5l5-3c0.3-0.2,0.5-0.5,0.7-0.8l2.7-5.5C356.7-532,358.5-532,359.1-530.7z"/>
			<g>
				<g>
					<path fill="none" stroke="#231F20" stroke-width="2.7895" stroke-miterlimit="10" d="M343.8-452.4l27.3,25.9
						c3.9,3.7,4.1,10,0.3,13.9l0,0c-3.7,3.9-10,4.1-13.9,0.3l-27.9-26.5"/>
					
						<line fill="none" stroke="#231F20" stroke-width="2.7895" stroke-miterlimit="10" x1="353.5" y1="-416" x2="367.1" y2="-430.2"/>
					
						<line fill="none" stroke="#231F20" stroke-width="2.7895" stroke-miterlimit="10" x1="349.8" y1="-419.5" x2="363.4" y2="-433.7"/>
					
						<line fill="none" stroke="#231F20" stroke-width="2.7895" stroke-miterlimit="10" x1="344.4" y1="-438.2" x2="350.1" y2="-432.8"/>
					<path fill="none" stroke="#231F20" stroke-width="2.7895" stroke-miterlimit="10" d="M337.8-469.6c7.3,6.9,7.6,18.5,0.6,25.8
						c-6.9,7.3-18.5,7.6-25.8,0.6c-7.3-6.9-7.6-18.5-0.6-25.8C319-476.3,330.5-476.6,337.8-469.6z"/>
					
						<line fill="none" stroke="#231F20" stroke-width="2.7895" stroke-miterlimit="10" x1="312.7" y1="-443.2" x2="337.8" y2="-469.6"/>
				</g>
				
					<line fill="none" stroke="#231F20" stroke-width="2.7895" stroke-linecap="round" stroke-miterlimit="10" x1="371.4" y1="-412.6" x2="378.1" y2="-406.5"/>
			</g>
			<g>
				<polyline fill="none" stroke="#231F20" stroke-width="3" stroke-miterlimit="10" points="414.5,-451.3 398,-477.8 418.9,-490.8 
					435.4,-464.3 				"/>
				<path fill="none" stroke="#231F20" stroke-width="3" stroke-miterlimit="10" d="M414.5-451.3c2.1,3.4,1.1,7.8-2.3,9.9
					c-3.4,2.1-7.8,1.1-9.9-2.3c-2.1-3.4-1.1-7.8,2.3-9.9C408-455.7,412.4-454.7,414.5-451.3z"/>
				<path fill="none" stroke="#231F20" stroke-width="3" stroke-miterlimit="10" d="M435.4-464.3c2.1,3.4,1.1,7.8-2.3,9.9
					c-3.4,2.1-7.8,1.1-9.9-2.3c-2.1-3.4-1.1-7.8,2.3-9.9C428.9-468.7,433.3-467.7,435.4-464.3z"/>
				<line fill="none" stroke="#231F20" stroke-width="3" stroke-miterlimit="10" x1="402.9" y1="-470" x2="423.8" y2="-483.1"/>
			</g>
			<path fill="#231F20" d="M381.4-490.5c0.2,1.9-1.2,3.6-3.1,3.8s-3.6-1.2-3.8-3.1c-0.2-1.9,1.2-3.6,3.1-3.8
				S381.2-492.4,381.4-490.5z"/>
			<path fill="#231F20" d="M497-423.4c0.2,1.9-1.2,3.6-3.1,3.8s-3.6-1.2-3.8-3.1s1.2-3.6,3.1-3.8C495.2-426.7,496.8-425.3,497-423.4
				z"/>
			<path fill="none" stroke="#231F20" stroke-width="2" stroke-miterlimit="10" d="M318.4-504.7c0.2,1.9-1.2,3.6-3.1,3.8
				c-1.9,0.2-3.6-1.2-3.8-3.1s1.2-3.6,3.1-3.8C316.6-508,318.2-506.6,318.4-504.7z"/>
			<path fill="none" stroke="#231F20" stroke-width="3" stroke-miterlimit="10" d="M475.4-420.7c-2.9-4.7-9.1-6.2-13.9-3.3l-2.4,1.5
				l-1.5-2.4c-2.9-4.7-9.1-6.2-13.9-3.3c-4.7,2.9-6.2,9.1-3.3,13.9l1.5,2.4l10.6,17.2l17.2-10.6l2.4-1.5
				C476.9-409.7,478.4-415.9,475.4-420.7z"/>
			<path fill="#231F20" d="M519.3-436.4c2,1.7,3.9,3.5,5.7,5.3c0.9,0.9,1.8,1.8,2.7,2.8c0.9,0.9,1.8,1.9,2.7,2.8l2.3,2.5l-3.5-0.4
				l-2.8-0.3c-0.9-0.1-1.8-0.2-2.8-0.4c-1.8-0.2-3.7-0.5-5.5-0.8l1.3-2.5c1.2,1.4,2.4,2.8,3.6,4.3c1.2,1.4,2.4,2.9,3.5,4.4
				c0.6,0.7,1.1,1.5,1.7,2.2c0.6,0.8,1.1,1.5,1.7,2.3c1.1,1.5,2.2,3,3.2,4.6c-1.5-1.2-2.8-2.5-4.2-3.7c-0.7-0.6-1.3-1.3-2-1.9
				c-0.7-0.6-1.3-1.3-2-2c-1.3-1.3-2.6-2.7-3.9-4c-1.3-1.3-2.5-2.7-3.8-4.1l-2.7-3l4,0.5c1.8,0.2,3.7,0.5,5.5,0.8
				c0.9,0.2,1.8,0.3,2.7,0.4l2.7,0.5l-1.2,2.2c-0.8-1-1.6-2-2.4-3.1c-0.8-1-1.6-2.1-2.3-3.1C522.1-432.1,520.6-434.2,519.3-436.4z"
				/>
			<path fill="none" stroke="#231F20" stroke-width="3" stroke-linecap="round" stroke-miterlimit="10" d="M531.6-463.8
				c2.1-2.3,5,0.5,7.1-1.8c2.1-2.3-0.9-5,1.2-7.2c2.1-2.3,5,0.5,7.1-1.8c2.1-2.3-0.9-5,1.2-7.2c2.1-2.3,5,0.5,7.1-1.8"/>
			<path fill="none" stroke="#231F20" stroke-width="3" stroke-linecap="round" stroke-miterlimit="10" d="M454.2-463.8
				c0,0,11.5,30,45.5,21.6"/>
			<path fill="none" stroke="#231F20" stroke-width="3" stroke-linecap="round" stroke-miterlimit="10" d="M395.9-423
				c0,0,7.3,13.9,22,3.5"/>
			<path fill="none" stroke="#231F20" stroke-width="3" stroke-linecap="round" stroke-miterlimit="10" d="M312.7-419.5
				c0,0,0.5,8.6,9.7,7.3"/>
			<path fill="none" stroke="#231F20" stroke-width="3" stroke-linecap="round" stroke-miterlimit="10" d="M351.9-481.7
				c0,0,14.5,3.2,11,16.2"/>
			<path fill="none" stroke="#231F20" stroke-width="3" stroke-linecap="round" stroke-miterlimit="10" d="M385.2-511.5
				c0,0,13.3-3.9,15.5,7"/>
			<g>
				
					<line fill="none" stroke="#231F20" stroke-width="3" stroke-linecap="round" stroke-miterlimit="10" x1="331" y1="-384.4" x2="338.4" y2="-377.1"/>
				
					<line fill="none" stroke="#231F20" stroke-width="3" stroke-linecap="round" stroke-miterlimit="10" x1="338.4" y1="-384.4" x2="331" y2="-377.1"/>
			</g>
		</g>
		<g>
			<path fill="none" stroke="#231F20" stroke-width="3" stroke-miterlimit="10" d="M260.2-475.7c1.4-2.4,4.3-3.5,6.4-2.5
				c1.7-3,3.4-6.1,5.2-9.2c-17.9-7.6-36.4-18.4-54.6-32.3c-1.7,2.5-3.5,5-5.2,7.4c0.1,0.1,0.2,0.1,0.3,0.2c2.2,1.7,2.8,4.7,1.4,6.6
				c-1.4,2-4.3,2.1-6.4,0.3c-0.1-0.1-0.2-0.1-0.2-0.2c-1.7,2.4-3.4,4.7-5.2,7.1c17.9,15.7,36.4,28.2,54.6,37.6
				c1.7-2.9,3.5-5.9,5.2-8.8C259.4-470.5,258.8-473.3,260.2-475.7z"/>
			<path fill="none" stroke="#231F20" stroke-width="3" stroke-linecap="round" stroke-miterlimit="10" d="M259.8-408l2.1,4.2
				c0.1,0.3,0.3,0.5,0.6,0.6l3.9,2.3c1,0.6,1,2.1,0,2.7l-3.9,2.3c-0.2,0.1-0.4,0.4-0.6,0.6l-2.1,4.2c-0.5,1.1-1.9,1.1-2.4,0
				l-2.1-4.2c-0.1-0.3-0.3-0.5-0.6-0.6l-3.9-2.3c-1-0.6-1-2.1,0-2.7l3.9-2.3c0.2-0.1,0.4-0.4,0.6-0.6l2.1-4.2
				C257.9-409.1,259.3-409.1,259.8-408z"/>
			<path fill="none" stroke="#231F20" stroke-width="3" stroke-miterlimit="10" d="M109.1-530.7l2.7,5.5c0.2,0.3,0.4,0.6,0.7,0.8
				l5,3c1.2,0.7,1.2,2.7,0,3.5l-5,3c-0.3,0.2-0.5,0.5-0.7,0.8l-2.7,5.5c-0.7,1.4-2.5,1.4-3.1,0l-2.7-5.5c-0.2-0.3-0.4-0.6-0.7-0.8
				l-5-3c-1.2-0.7-1.2-2.7,0-3.5l5-3c0.3-0.2,0.5-0.5,0.7-0.8l2.7-5.5C106.7-532,108.5-532,109.1-530.7z"/>
			<g>
				<g>
					<path fill="none" stroke="#231F20" stroke-width="2.7895" stroke-miterlimit="10" d="M93.8-452.4l27.3,25.9
						c3.9,3.7,4.1,10,0.3,13.9h0c-3.7,3.9-10,4.1-13.9,0.3l-27.9-26.5"/>
					
						<line fill="none" stroke="#231F20" stroke-width="2.7895" stroke-miterlimit="10" x1="103.5" y1="-416" x2="117.1" y2="-430.2"/>
					
						<line fill="none" stroke="#231F20" stroke-width="2.7895" stroke-miterlimit="10" x1="99.8" y1="-419.5" x2="113.4" y2="-433.7"/>
					
						<line fill="none" stroke="#231F20" stroke-width="2.7895" stroke-miterlimit="10" x1="94.4" y1="-438.2" x2="100.1" y2="-432.8"/>
					<path fill="none" stroke="#231F20" stroke-width="2.7895" stroke-miterlimit="10" d="M87.8-469.6c7.3,6.9,7.6,18.5,0.6,25.8
						s-18.5,7.6-25.8,0.6c-7.3-6.9-7.6-18.5-0.6-25.8C69-476.3,80.5-476.6,87.8-469.6z"/>
					
						<line fill="none" stroke="#231F20" stroke-width="2.7895" stroke-miterlimit="10" x1="62.7" y1="-443.2" x2="87.8" y2="-469.6"/>
				</g>
				
					<line fill="none" stroke="#231F20" stroke-width="2.7895" stroke-linecap="round" stroke-miterlimit="10" x1="121.4" y1="-412.6" x2="128.1" y2="-406.5"/>
			</g>
			<g>
				<polyline fill="none" stroke="#231F20" stroke-width="3" stroke-miterlimit="10" points="164.5,-451.3 148,-477.8 168.9,-490.8 
					185.4,-464.3 				"/>
				<path fill="none" stroke="#231F20" stroke-width="3" stroke-miterlimit="10" d="M164.5-451.3c2.1,3.4,1.1,7.8-2.3,9.9
					c-3.4,2.1-7.8,1.1-9.9-2.3c-2.1-3.4-1.1-7.8,2.3-9.9C158-455.7,162.4-454.7,164.5-451.3z"/>
				<path fill="none" stroke="#231F20" stroke-width="3" stroke-miterlimit="10" d="M185.4-464.3c2.1,3.4,1.1,7.8-2.3,9.9
					c-3.4,2.1-7.8,1.1-9.9-2.3c-2.1-3.4-1.1-7.8,2.3-9.9C178.9-468.7,183.3-467.7,185.4-464.3z"/>
				<line fill="none" stroke="#231F20" stroke-width="3" stroke-miterlimit="10" x1="152.9" y1="-470" x2="173.8" y2="-483.1"/>
			</g>
			<path fill="#231F20" d="M131.4-490.5c0.2,1.9-1.2,3.6-3.1,3.8c-1.9,0.2-3.6-1.2-3.8-3.1c-0.2-1.9,1.2-3.6,3.1-3.8
				C129.6-493.8,131.2-492.4,131.4-490.5z"/>
			<path fill="#231F20" d="M247-423.4c0.2,1.9-1.2,3.6-3.1,3.8c-1.9,0.2-3.6-1.2-3.8-3.1s1.2-3.6,3.1-3.8
				C245.2-426.7,246.8-425.3,247-423.4z"/>
			<path fill="none" stroke="#231F20" stroke-width="2" stroke-miterlimit="10" d="M68.4-504.7c0.2,1.9-1.2,3.6-3.1,3.8
				c-1.9,0.2-3.6-1.2-3.8-3.1c-0.2-1.9,1.2-3.6,3.1-3.8C66.6-508,68.2-506.6,68.4-504.7z"/>
			<path fill="none" stroke="#231F20" stroke-width="3" stroke-miterlimit="10" d="M225.4-420.7c-2.9-4.7-9.1-6.2-13.9-3.3l-2.4,1.5
				l-1.5-2.4c-2.9-4.7-9.1-6.2-13.9-3.3c-4.7,2.9-6.2,9.1-3.3,13.9l1.5,2.4l10.6,17.2l17.2-10.6l2.4-1.5
				C226.9-409.7,228.4-415.9,225.4-420.7z"/>
			<path fill="#231F20" d="M269.3-436.4c2,1.7,3.9,3.5,5.7,5.3c0.9,0.9,1.8,1.8,2.7,2.8c0.9,0.9,1.8,1.9,2.7,2.8l2.3,2.5l-3.5-0.4
				l-2.8-0.3c-0.9-0.1-1.8-0.2-2.8-0.4c-1.8-0.2-3.7-0.5-5.5-0.8l1.3-2.5c1.2,1.4,2.4,2.8,3.6,4.3c1.2,1.4,2.4,2.9,3.5,4.4
				c0.6,0.7,1.1,1.5,1.7,2.2c0.6,0.8,1.1,1.5,1.7,2.3c1.1,1.5,2.2,3,3.2,4.6c-1.5-1.2-2.8-2.5-4.2-3.7c-0.7-0.6-1.3-1.3-2-1.9
				c-0.7-0.6-1.3-1.3-2-2c-1.3-1.3-2.6-2.7-3.9-4c-1.3-1.3-2.5-2.7-3.8-4.1l-2.7-3l4,0.5c1.8,0.2,3.7,0.5,5.5,0.8
				c0.9,0.2,1.8,0.3,2.7,0.4l2.7,0.5l-1.2,2.2c-0.8-1-1.6-2-2.4-3.1c-0.8-1-1.6-2.1-2.3-3.1C272.1-432.1,270.6-434.2,269.3-436.4z"
				/>
			<path fill="none" stroke="#231F20" stroke-width="3" stroke-linecap="round" stroke-miterlimit="10" d="M281.6-463.8
				c2.1-2.3,5,0.5,7.1-1.8c2.1-2.3-0.9-5,1.2-7.2c2.1-2.3,5,0.5,7.1-1.8c2.1-2.3-0.9-5,1.2-7.2c2.1-2.3,5,0.5,7.1-1.8"/>
			<path fill="none" stroke="#231F20" stroke-width="3" stroke-linecap="round" stroke-miterlimit="10" d="M204.2-463.8
				c0,0,11.5,30,45.5,21.6"/>
			<path fill="none" stroke="#231F20" stroke-width="3" stroke-linecap="round" stroke-miterlimit="10" d="M145.9-423
				c0,0,7.3,13.9,22,3.5"/>
			<path fill="none" stroke="#231F20" stroke-width="3" stroke-linecap="round" stroke-miterlimit="10" d="M62.7-419.5
				c0,0,0.5,8.6,9.7,7.3"/>
			<path fill="none" stroke="#231F20" stroke-width="3" stroke-linecap="round" stroke-miterlimit="10" d="M101.9-481.7
				c0,0,14.5,3.2,11,16.2"/>
			<path fill="none" stroke="#231F20" stroke-width="3" stroke-linecap="round" stroke-miterlimit="10" d="M135.2-511.5
				c0,0,13.3-3.9,15.5,7"/>
			<g>
				
					<line fill="none" stroke="#231F20" stroke-width="3" stroke-linecap="round" stroke-miterlimit="10" x1="81" y1="-384.4" x2="88.4" y2="-377.1"/>
				
					<line fill="none" stroke="#231F20" stroke-width="3" stroke-linecap="round" stroke-miterlimit="10" x1="88.4" y1="-384.4" x2="81" y2="-377.1"/>
			</g>
		</g>
		<g>
			<path fill="none" stroke="#231F20" stroke-width="3" stroke-linecap="round" stroke-miterlimit="10" d="M31.6-463.8
				c2.1-2.3,5,0.5,7.1-1.8c2.1-2.3-0.9-5,1.2-7.2c2.1-2.3,5,0.5,7.1-1.8c2.1-2.3-0.9-5,1.2-7.2c2.1-2.3,5,0.5,7.1-1.8"/>
		</g>
	</g>
</pattern>
<g>
	<path fill="#D85F58" d="M164.8,91.2c-0.8,0-1.6-0.6-1.9-1.4c-0.2-0.9-0.5-1.7-0.8-2.6c-1.4-4.2-2.9-8.9,0.2-13.6
		c1.2-1.8,2.9-3.2,4.5-4.6c2.1-1.8,4-3.4,4.4-5.6c0.5-2.5-1.3-5.1-3.3-6.4c-2.3-1.6-5.3-2.3-8.5-2.9c-11.7-2.3-24.1-3.9-35.4-0.5
		c-2,0.6-4.6,1.5-6.1,3.4c-1.2,1.4-1.8,3.7-0.7,5.2c0.6,0.9,1.9,1.5,3.1,2.2c1.9,1,4.1,2.1,5.1,4.6c1.2,3.1-0.5,6.4-2.8,8.1
		c-2.3,1.7-5.2,2-7.3,2.1c-1.8,0.1-3.6,0-5.4,0c-3.3-0.1-6.5-0.2-9.5,0.6c-2.7,0.7-5.3,2.6-6.5,4.8c-0.7,1.3-0.9,2.7-0.5,4
		c0.3,1-0.3,2.1-1.3,2.4c-1,0.3-2.1-0.3-2.4-1.3c-0.7-2.3-0.4-4.7,0.8-7c1.7-3.1,5.2-5.7,8.9-6.7c3.5-0.9,7.1-0.8,10.6-0.7
		c1.8,0.1,3.4,0.1,5.1,0c2.5-0.1,4.1-0.5,5.3-1.4c1.1-0.8,1.9-2.3,1.5-3.5c-0.4-1.1-1.7-1.8-3.2-2.5c-1.6-0.8-3.3-1.7-4.5-3.4
		c-2.3-3.2-1.2-7.4,1-9.9c2.2-2.6,5.4-3.8,8-4.5c12.1-3.6,25.1-1.9,37.3,0.4c3.6,0.7,7.1,1.5,10,3.5c3,2.1,5.7,6.1,4.9,10.4
		c-0.7,3.5-3.4,5.8-5.7,7.8c-1.5,1.2-2.8,2.4-3.7,3.8c-2.1,3.1-1,6.4,0.3,10.2c0.3,0.9,0.6,1.8,0.9,2.7c0.3,1-0.3,2.1-1.3,2.4
		C165.2,91.2,165,91.2,164.8,91.2z"/>
	<g>
		<g>
			<path fill="#FFFFFF" d="M128.1,182L128.1,182c-24,0-43.4-20.9-43.4-46.7V95l29.9,5c9,1.5,18.1,1.5,27.1,0l29.9-5v40.3
				C171.5,161.1,152.1,182,128.1,182z"/>
			<path fill="#106580" d="M128.1,183.9c-25,0-45.4-21.8-45.4-48.6V95c0-0.6,0.3-1.1,0.7-1.5c0.4-0.4,1-0.5,1.6-0.4l29.9,5
				c8.7,1.5,17.7,1.5,26.4,0l29.9-5c0.6-0.1,1.1,0.1,1.6,0.4c0.4,0.4,0.7,0.9,0.7,1.5v40.3C173.5,162.1,153.1,183.9,128.1,183.9z
				 M86.6,97.3v38c0,24.7,18.6,44.7,41.5,44.7s41.5-20.1,41.5-44.7v-38l-27.6,4.6c-9.1,1.5-18.6,1.5-27.7,0L86.6,97.3z"/>
		</g>
		<path fill="#106580" d="M108.7,160.4c-1.7,0.4-3.5-0.8-3.7-2.6c-1.5-10.8,8.4-22.1,23.1-22.1c14.7,0,24.6,11.3,23.1,22.1
			c-0.2,1.8-1.9,3-3.7,2.6C134.7,157.5,121.5,157.5,108.7,160.4z"/>
		<g>
			<g>
				<path fill="url(#New_Pattern_2_copy)" d="M117.6,125.5c0,3.6-3,0-6.6,0c-3.6,0-6.6,3.6-6.6,0c0-3.6,3-6.6,6.6-6.6
					C114.6,118.9,117.6,121.9,117.6,125.5z"/>
				<path fill="#106580" d="M105.3,129.1c-1,0-1.8-0.5-2.3-1.3c-0.4-0.6-0.5-1.3-0.5-2.3c0-4.7,3.8-8.5,8.5-8.5
					c4.7,0,8.5,3.8,8.5,8.5c0,3.3-2.2,3.6-2.8,3.6c-0.9,0-1.7-0.3-2.6-0.7c-1-0.4-2.1-0.9-3.1-0.9s-2.1,0.5-3.1,0.9
					C107,128.7,106.2,129.1,105.3,129.1L105.3,129.1z M111,120.9c-2.3,0-4.2,1.7-4.6,3.9c1.2-0.5,2.8-1.2,4.6-1.2s3.4,0.7,4.6,1.2
					C115.2,122.6,113.3,120.9,111,120.9z"/>
			</g>
			<g>
				<path fill="url(#New_Pattern_2_copy)" d="M151.8,125.5c0,3.6-3,0-6.6,0s-6.6,3.6-6.6,0c0-3.6,3-6.6,6.6-6.6
					S151.8,121.9,151.8,125.5z"/>
				<path fill="#106580" d="M139.5,129.1c-1,0-1.8-0.5-2.3-1.3c-0.4-0.6-0.5-1.3-0.5-2.3c0-4.7,3.8-8.5,8.5-8.5
					c4.7,0,8.5,3.8,8.5,8.5c0,3.3-2.2,3.6-2.8,3.6c-0.9,0-1.7-0.3-2.6-0.7c-1-0.4-2.1-0.9-3.1-0.9s-2.1,0.5-3.1,0.9
					C141.2,128.7,140.4,129.1,139.5,129.1L139.5,129.1z M145.2,120.9c-2.3,0-4.2,1.7-4.6,3.9c1.2-0.5,2.8-1.2,4.6-1.2
					s3.4,0.7,4.6,1.2C149.4,122.6,147.5,120.9,145.2,120.9z"/>
			</g>
		</g>
		<path fill="url(#New_Pattern_2_copy)" d="M162.8,143.5c0.4,2.6-1.8,4.8-4.4,4.4c-1.6-0.2-2.9-1.6-3.2-3.2
			c-0.4-2.6,3.8-11.4,3.8-11.4S162.5,141.9,162.8,143.5z"/>
	</g>
	<g>
		<g>
			<path fill="#FFFFFF" d="M60.2,137.8L60.2,137.8c-24,0-43.4-20.9-43.4-46.7V51.8l29.9,5c9,1.5,18.1,1.5,27.1,0l29.9-5v39.3
				C103.6,116.9,84.2,137.8,60.2,137.8z"/>
			<path fill="#106580" d="M60.2,139.8c-25,0-45.4-21.8-45.4-48.6V51.8c0-0.6,0.3-1.1,0.7-1.5c0.4-0.4,1-0.5,1.6-0.4l29.9,5
				c8.7,1.5,17.7,1.5,26.4,0l29.9-5c0.6-0.1,1.1,0.1,1.6,0.4c0.4,0.4,0.7,0.9,0.7,1.5v39.3C105.5,118,85.2,139.8,60.2,139.8z
				 M18.7,54.1v37c0,24.7,18.6,44.7,41.5,44.7h0c22.9,0,41.5-20.1,41.5-44.7v-37L74,58.7c-9.1,1.5-18.6,1.5-27.7,0L18.7,54.1z"/>
		</g>
		<path fill="#106580" d="M81.3,98.2c1.9,0,3.4,1.7,3.1,3.6c-1.8,11.8-11.9,20.9-24.2,20.9s-22.5-9.1-24.2-20.9
			c-0.3-1.9,1.2-3.6,3.1-3.6H81.3z"/>
		<g>
			<g>
				<path fill="#FFFFFF" d="M49.7,81.4c0,3.6-3,0-6.6,0c-3.6,0-6.6,3.6-6.6,0c0-3.6,3-6.6,6.6-6.6C46.7,74.8,49.7,77.7,49.7,81.4z"
					/>
				<path fill="#106580" d="M37.4,85c-1,0-1.8-0.5-2.3-1.3c-0.4-0.6-0.5-1.3-0.5-2.3c0-4.7,3.8-8.5,8.5-8.5s8.5,3.8,8.5,8.5
					c0,3.3-2.2,3.6-2.8,3.6c-0.9,0-1.7-0.3-2.6-0.7c-1-0.4-2.1-0.9-3.1-0.9s-2.1,0.5-3.1,0.9C39,84.6,38.2,85,37.4,85L37.4,85z
					 M43.1,76.7c-2.3,0-4.2,1.7-4.6,3.9c1.2-0.5,2.8-1.2,4.6-1.2s3.4,0.7,4.6,1.2C47.3,78.4,45.4,76.7,43.1,76.7z"/>
			</g>
			<g>
				<path fill="#FFFFFF" d="M83.9,81.4c0,3.6-3,0-6.6,0c-3.6,0-6.6,3.6-6.6,0c0-3.6,3-6.6,6.6-6.6C80.9,74.8,83.9,77.7,83.9,81.4z"
					/>
				<path fill="#106580" d="M71.6,85c-1,0-1.8-0.5-2.3-1.3c-0.4-0.6-0.5-1.3-0.5-2.3c0-4.7,3.8-8.5,8.5-8.5s8.5,3.8,8.5,8.5
					c0,3.3-2.2,3.6-2.8,3.6c-0.9,0-1.7-0.3-2.6-0.7c-1-0.4-2.1-0.9-3.1-0.9c-1,0-2.1,0.5-3.1,0.9C73.2,84.6,72.4,85,71.6,85L71.6,85
					z M77.3,79.4c1.8,0,3.4,0.7,4.6,1.2c-0.4-2.2-2.3-3.9-4.6-3.9c-2.3,0-4.2,1.7-4.6,3.9C73.9,80.1,75.4,79.4,77.3,79.4z"/>
			</g>
		</g>
	</g>
	<path fill="#D85F58" d="M95.2,49.4c-0.8,0-1.6-0.6-1.9-1.4c-0.2-0.9-0.5-1.7-0.8-2.6c-1.4-4.2-2.9-8.9,0.2-13.6
		c1.2-1.8,2.9-3.2,4.5-4.6c2.1-1.8,4-3.4,4.4-5.6c0.5-2.5-1.3-5.1-3.3-6.4c-2.3-1.6-5.3-2.3-8.6-2.9c-11.7-2.3-24.1-3.9-35.4-0.5
		c-2,0.6-4.6,1.5-6.1,3.4c-1.2,1.4-1.8,3.7-0.7,5.2c0.6,0.9,1.9,1.5,3.1,2.2c1.9,1,4.1,2.1,5.1,4.6c1.2,3.1-0.5,6.4-2.8,8.1
		c-2.3,1.7-5.2,2-7.3,2.1c-1.8,0.1-3.6,0-5.4,0c-3.3-0.1-6.5-0.2-9.5,0.6c-2.7,0.7-5.3,2.6-6.5,4.8c-0.7,1.3-0.9,2.7-0.5,4
		c0.3,1-0.3,2.1-1.3,2.4c-1,0.3-2.1-0.3-2.4-1.3c-0.7-2.3-0.4-4.7,0.8-7c1.7-3.1,5.2-5.7,8.9-6.7c3.5-0.9,7.1-0.8,10.6-0.7
		c1.8,0.1,3.4,0.1,5.1,0c2.5-0.1,4.1-0.5,5.3-1.4c1.1-0.8,1.9-2.3,1.5-3.5c-0.4-1.1-1.7-1.8-3.2-2.5c-1.6-0.8-3.3-1.7-4.5-3.4
		c-2.3-3.2-1.2-7.4,1-9.9c2.2-2.6,5.4-3.8,8-4.5c12.1-3.6,25.1-1.9,37.3,0.4c3.6,0.7,7.1,1.5,10,3.5c3,2.1,5.7,6.1,4.9,10.4
		c-0.7,3.5-3.4,5.8-5.7,7.8c-1.5,1.2-2.8,2.4-3.7,3.8c-2.1,3.1-1,6.4,0.3,10.2c0.3,0.9,0.6,1.8,0.9,2.7c0.3,1-0.3,2.1-1.3,2.4
		C95.5,49.4,95.4,49.4,95.2,49.4z"/>
</g>
</svg>
