<?xml version="1.0" encoding="utf-8"?>
<!-- Generator: Adobe Illustrator 18.0.0, SVG Export Plug-In . SVG Version: 6.00 Build 0)  -->
<!DOCTYPE svg PUBLIC "-//W3C//DTD SVG 1.1//EN" "http://www.w3.org/Graphics/SVG/1.1/DTD/svg11.dtd">
<svg version="1.1" id="Layer_1" xmlns="http://www.w3.org/2000/svg" xmlns:xlink="http://www.w3.org/1999/xlink" x="0px" y="0px"
	 viewBox="0 0 260 190" enable-background="new 0 0 260 190" xml:space="preserve">
<g>
	<path fill="#F0F0F0" d="M220.3,31.1h-43.5c-0.8,0-1.5-0.7-1.5-1.5s0.7-1.5,1.5-1.5h43.5c0.8,0,1.5,0.7,1.5,1.5
		S221.1,31.1,220.3,31.1z"/>
	<g>
		<path fill="#2F92C8" d="M230.5,144.8c-1.3,0-2.4-0.7-3-1.9l-2.9-5.8c0-0.1-0.1-0.2-0.2-0.2l-5.3-3.2c-1.1-0.6-1.7-1.8-1.7-3.1
			c0-1.3,0.6-2.5,1.7-3.1l5.3-3.2c0.1,0,0.1-0.1,0.2-0.2l2.9-5.8c0.6-1.2,1.7-1.9,3-1.9c1.3,0,2.4,0.7,3,1.9l2.9,5.8
			c0,0.1,0.1,0.2,0.2,0.2l5.3,3.2c1.1,0.6,1.7,1.8,1.7,3.1c0,1.3-0.6,2.5-1.7,3.1l-5.3,3.2c-0.1,0-0.1,0.1-0.2,0.2l-2.9,5.8
			C232.9,144,231.7,144.8,230.5,144.8z M230.5,119.1c-0.1,0-0.2,0.1-0.3,0.3l-2.9,5.8c-0.3,0.6-0.8,1.1-1.3,1.5l-5.3,3.2
			c-0.2,0.1-0.3,0.5-0.3,0.6s0,0.4,0.3,0.6l5.3,3.2c0.6,0.3,1,0.8,1.3,1.5l2.9,5.8c0.2,0.3,0.5,0.3,0.7,0l2.9-5.8
			c0.3-0.6,0.8-1.1,1.3-1.5l5.3-3.2c0.2-0.1,0.3-0.5,0.3-0.6c0-0.1,0-0.4-0.3-0.6l-5.3-3.2c-0.6-0.3-1-0.8-1.3-1.5l-2.9-5.8
			C230.7,119.2,230.6,119.1,230.5,119.1z"/>
		<path fill="#2F92C8" d="M36.6,84.4l1.6,3.2c0.1,0.2,0.2,0.3,0.4,0.5l2.9,1.7c0.7,0.4,0.7,1.6,0,2l-2.9,1.7
			c-0.2,0.1-0.3,0.3-0.4,0.5l-1.6,3.2c-0.4,0.8-1.4,0.8-1.8,0l-1.6-3.2c-0.1-0.2-0.2-0.3-0.4-0.5l-2.9-1.7c-0.7-0.4-0.7-1.6,0-2
			l2.9-1.7c0.2-0.1,0.3-0.3,0.4-0.5l1.6-3.2C35.1,83.6,36.2,83.6,36.6,84.4z"/>
		<g>
			<g>
				<path fill="#D85F58" d="M122.2,106.5l-8.9-32c-0.1-0.5-0.1-1,0.2-1.5c0.3-0.4,0.7-0.8,1.2-0.9l25.2-7c1-0.3,2.1,0.3,2.4,1.3
					l8.9,32l-3.7,1L139,69.3l-21.5,6l8.4,30.1L122.2,106.5z"/>
				<path fill="#D85F58" d="M116.7,117.6c-4.3,0-8.1-2.9-9.2-7c-1.4-5.1,1.6-10.4,6.7-11.8c0.8-0.2,1.7-0.4,2.6-0.4
					c4.3,0,8.1,2.9,9.2,7c1.4,5.1-1.6,10.4-6.7,11.8C118.4,117.5,117.5,117.6,116.7,117.6z M116.7,102.3c-0.5,0-1,0.1-1.5,0.2
					c-3,0.8-4.8,4-4,7c0.7,2.5,2.9,4.2,5.5,4.2c0.5,0,1-0.1,1.5-0.2c3-0.8,4.8-4,4-7C121.5,104,119.2,102.3,116.7,102.3z"/>
				<path fill="#D85F58" d="M141.9,110.6c-4.3,0-8.1-2.9-9.2-7c-0.7-2.5-0.4-5.1,0.9-7.3c1.3-2.2,3.3-3.8,5.8-4.5
					c0.8-0.2,1.7-0.4,2.6-0.4c4.3,0,8.1,2.9,9.2,7c1.4,5.1-1.6,10.4-6.7,11.8C143.6,110.5,142.8,110.6,141.9,110.6z M141.9,95.3
					c-0.5,0-1,0.1-1.5,0.2c-3,0.8-4.8,4-4,7c0.7,2.5,2.9,4.2,5.5,4.2c0.5,0,1-0.1,1.5-0.2c3-0.8,4.8-4,4-7
					C146.7,97,144.5,95.3,141.9,95.3z"/>
				
					<rect x="128.4" y="66.7" transform="matrix(0.2681 0.9634 -0.9634 0.2681 172.3431 -67.1727)" fill="#D85F58" width="3.9" height="26.2"/>
			</g>
		</g>
		<path fill="#8061C9" d="M32,62.3c-1.8,0-3.2-1.3-3.3-3.1L28.2,53c0-0.1-0.1-0.2-0.2-0.3l-5.4-3.1c-1.1-0.6-1.7-1.8-1.6-3.1
			s0.9-2.4,2.1-2.9l5.8-2.4c0.1,0,0.2-0.1,0.2-0.2l1.3-6.1c0.3-1.5,1.7-2.6,3.3-2.6c1,0,1.9,0.4,2.5,1.2l4,4.8
			c0.1,0.1,0.2,0.1,0.3,0.1l6.2-0.6c1.3-0.1,2.6,0.5,3.2,1.7c0.6,1.1,0.6,2.3-0.1,3.4l-3.3,5.3c-0.1,0.1-0.1,0.2,0,0.3l2.5,5.7
			c0.5,1,0.4,2.2-0.3,3.2c-0.8,1.2-2.2,1.8-3.6,1.4l-6.1-1.5c-0.2,0-0.2,0-0.3,0.1l-4.7,4.2C33.6,62,32.8,62.3,32,62.3z M33.6,35.3
			c0,0-0.3,0-0.3,0.3l-1.3,6.1c-0.2,1.1-1,2-2,2.4l-5.8,2.4c-0.1,0.1-0.2,0.1-0.2,0.3s0,0.2,0.2,0.3l5.4,3.1
			c0.9,0.6,1.6,1.5,1.6,2.6l0.5,6.2c0,0.3,0.3,0.3,0.3,0.3c0.1,0,0.1,0,0.2-0.1l4.7-4.2c0.8-0.7,2-1,3-0.8l6.1,1.5
			c0.3,0,0.3-0.1,0.4-0.1c0.1-0.1,0-0.3,0-0.3l-2.5-5.7c-0.4-1-0.4-2.2,0.2-3.1l3.3-5.3c0.1-0.1,0.1-0.2,0-0.3
			c0-0.1-0.1-0.2-0.3-0.2l-6.3,0.6c-1.1,0.1-2.2-0.3-2.9-1.2l-4-4.8C33.8,35.4,33.7,35.3,33.6,35.3z"/>
		<path fill="#D85F58" d="M217.2,101.7l3.5,3.1c0.9,0.8,2.2,0.2,2.3-0.9l0.4-4.7c0-0.5,0.3-0.9,0.7-1.1l4.1-2.4c1-0.6,0.9-2-0.2-2.5
			l-4.4-1.8c-0.4-0.2-0.7-0.5-0.8-1l-1-4.6c-0.2-1.1-1.7-1.5-2.4-0.6l-3.1,3.6c-0.3,0.3-0.7,0.5-1.2,0.5l-4.7-0.5
			c-1.1-0.1-1.9,1.1-1.3,2.1l2.5,4c0.2,0.4,0.3,0.9,0.1,1.3l-1.9,4.3c-0.5,1,0.5,2.2,1.6,1.9l4.6-1.1
			C216.4,101.2,216.8,101.4,217.2,101.7z"/>
		<g>
			<path fill="#106580" d="M153.2,170.9c-0.5,0-1-0.2-1.4-0.6L55.6,74.1c-0.8-0.8-0.8-2,0-2.7l20.2-20.2c0.4-0.4,0.9-0.6,1.4-0.6
				l0,0c0.5,0,1,0.2,1.4,0.6c1.1,1.1,2.6,1.8,4.3,1.8s3.1-0.6,4.3-1.8c2.3-2.3,2.3-6.2,0-8.5c-0.8-0.8-0.8-2,0-2.7l20.2-20.2
				c0.7-0.7,2-0.7,2.7,0l96.3,96.3c0.4,0.4,0.6,0.9,0.6,1.4s-0.2,1-0.6,1.4L186,138.9c-0.8,0.8-2,0.8-2.7,0
				c-1.1-1.1-2.6-1.8-4.3-1.8c-1.6,0-3.1,0.6-4.3,1.8c-2.3,2.3-2.3,6.2,0,8.5c0.4,0.4,0.6,0.9,0.6,1.4s-0.2,1-0.6,1.4l-20.2,20.2
				C154.2,170.7,153.7,170.9,153.2,170.9z M59.7,72.7l93.5,93.5l17.6-17.6c-2.6-3.8-2.2-9.1,1.2-12.5c1.9-1.9,4.4-2.9,7-2.9
				c2,0,3.9,0.6,5.5,1.7l17.6-17.6l-93.5-93.5L91,41.4c2.6,3.8,2.2,9.1-1.2,12.5c-1.9,1.9-4.4,2.9-7,2.9c-2,0-3.9-0.6-5.5-1.7
				L59.7,72.7z"/>
			<path fill="#2F92C8" d="M108.6,171.8l-23-23l1.4-1.4c2.3-2.3,2.3-6.1,0-8.4c-2.3-2.3-6.1-2.3-8.4,0l-1.4,1.4l-23.1-23.1L73,98.3
				l2.8,2.8l-16.1,16.1l17.5,17.5c3.9-2.6,9.1-2.1,12.5,1.3c3.4,3.4,3.8,8.7,1.3,12.5l17.6,17.6l15.9-15.6l2.8,2.9L108.6,171.8z"/>
			<path fill="#2F92C8" d="M188.3,92.2l-2.8-2.8l16.6-16.6l-17.5-17.5c-1.6,1.1-3.5,1.6-5.5,1.6c-2.7,0-5.2-1-7-2.9
				c-3.4-3.4-3.8-8.7-1.3-12.5l-17.5-17.5l-16.8,16.8l-2.8-2.8l19.7-19.7l23.1,23.1l-1.4,1.4c-2.3,2.3-2.3,6.1,0,8.4
				c1.1,1.1,2.6,1.7,4.2,1.7s3.1-0.6,4.2-1.7l1.4-1.4l23.1,23.1L188.3,92.2z"/>
		</g>
		<circle fill="#106580" cx="61.7" cy="40" r="2.4"/>
		<circle fill="#106580" cx="15.5" cy="71.4" r="2.4"/>
		<circle fill="#106580" cx="56.9" cy="95" r="2.4"/>
		<circle fill="#106580" cx="204.9" cy="149.1" r="2.4"/>
		<circle fill="#106580" cx="244.5" cy="103.4" r="2.4"/>
		<circle fill="#106580" cx="221.2" cy="71.4" r="2.4"/>
		<path fill="#F0F0F0" d="M56.9,135.9h-39c-0.8,0-1.5-0.7-1.5-1.5s0.7-1.5,1.5-1.5h39c0.8,0,1.5,0.7,1.5,1.5S57.8,135.9,56.9,135.9z
			"/>
		<path fill="#F0F0F0" d="M68.4,144.9H42c-0.8,0-1.5-0.7-1.5-1.5s0.7-1.5,1.5-1.5h26.4c0.8,0,1.5,0.7,1.5,1.5S69.2,144.9,68.4,144.9
			z"/>
		<path fill="#F0F0F0" d="M56.9,154H34c-0.8,0-1.5-0.7-1.5-1.5s0.7-1.5,1.5-1.5h23c0.8,0,1.5,0.7,1.5,1.5S57.8,154,56.9,154z"/>
		<path fill="#F0F0F0" d="M231,40h-37c-0.8,0-1.5-0.7-1.5-1.5s0.7-1.5,1.5-1.5h37c0.8,0,1.5,0.7,1.5,1.5S231.9,40,231,40z"/>
		<path fill="#F0F0F0" d="M210.3,48.8h-11.6c-0.8,0-1.5-0.7-1.5-1.5s0.7-1.5,1.5-1.5h11.6c0.8,0,1.5,0.7,1.5,1.5
			S211.2,48.8,210.3,48.8z"/>
	</g>
</g>
</svg>
